<?xml version="1.0" encoding="UTF-8"?>
<svg xmlns="http://www.w3.org/2000/svg" xmlns:xlink="http://www.w3.org/1999/xlink" viewBox="0 0 390 277.84">
  <defs>
    <style>
      .cls-1 {
        fill: #c16e3c;
      }

      .cls-2 {
        opacity: .83;
      }

      .cls-3 {
        fill: url(#linear-gradient);
      }

      .cls-3, .cls-4, .cls-5, .cls-6, .cls-7, .cls-8, .cls-9, .cls-10 {
        mix-blend-mode: multiply;
      }

      .cls-11 {
        fill: #e6e6e6;
        opacity: .35;
      }

      .cls-11, .cls-12, .cls-13, .cls-14, .cls-15, .cls-16 {
        mix-blend-mode: screen;
      }

      .cls-12, .cls-17 {
        fill: #f2f2f2;
      }

      .cls-18 {
        isolation: isolate;
      }

      .cls-19, .cls-4 {
        fill: #4d4d4d;
      }

      .cls-4 {
        opacity: .31;
      }

      .cls-20 {
        fill: #333;
      }

      .cls-5, .cls-13, .cls-7 {
        opacity: .6;
      }

      .cls-5, .cls-6 {
        fill: #d8d7d6;
      }

      .cls-21 {
        fill: gray;
      }

      .cls-14 {
        opacity: .49;
      }

      .cls-7, .cls-22, .cls-9 {
        fill: #da8f4a;
      }

      .cls-15, .cls-23 {
        fill: #ec8c4e;
      }

      .cls-8 {
        fill: url(#linear-gradient-2);
      }

      .cls-24 {
        fill: #999;
      }

      .cls-25 {
        fill: url(#linear-gradient-3);
      }

      .cls-9 {
        opacity: .5;
      }

      .cls-26 {
        fill: #844421;
      }
    </style>
    <linearGradient id="linear-gradient" x1="32.81" y1="223.68" x2="32.81" y2="-17.64" gradientUnits="userSpaceOnUse">
      <stop offset="0" stop-color="#b3b3b3"/>
      <stop offset="1" stop-color="#f2f2f2"/>
    </linearGradient>
    <linearGradient id="linear-gradient-2" x1="32.81" y1="205.62" x2="32.81" y2="-8.36" xlink:href="#linear-gradient"/>
    <linearGradient id="linear-gradient-3" x1="30.07" y1="238.45" x2="30.07" y2="30.73" gradientUnits="userSpaceOnUse">
      <stop offset="0" stop-color="#333"/>
      <stop offset="1" stop-color="#b3b3b3"/>
    </linearGradient>
  </defs>
  <g class="cls-18">
    <g id="Cigarette_with_Smoke" data-name="Cigarette with Smoke">
      <g id="Smoke">
        <path class="cls-3" d="m14.55,230.38c-3.91-6.44-5.53-14.25-4.5-21.72,1.48-10.72,8.04-20.01,11.24-30.35,7.03-22.68-2.52-48.71,7.3-70.33,4-8.81,11.19-16.92,10.7-26.58-.79-15.56-7.48-31.51-7.41-47.09.04-8.39.99-17.18,5.66-24.14,1.21-1.8,3.14-3.63,5.25-3.12,1.96.47,2.9,2.67,3.48,4.61,3,9.99,4.34,20.39,5.67,30.74,1.03,8.05,2.07,16.1,3.1,24.16.64,4.95,1.27,10,.35,14.91-1.37,7.35-6.11,13.79-7.09,21.2-1.82,13.84-9.38,27.12-7.69,40.98,1.12,9.21,4.24,18.39,2.89,27.57-1.07,7.29-4.9,13.91-9.45,19.7-2.99,3.81-8.41,11.6-10.84,15.79-5.34,9.21-3.66,16.14-3.9,26.78-1.7.8-5.31-1.29-4.78-3.1Z"/>
        <path class="cls-8" d="m14.89,214.47c-.09-1.71-.02-3.43.22-5.11.78-5.68,3.27-11.1,5.9-16.83,1.86-4.05,3.78-8.24,5.16-12.7,3.49-11.26,3.19-23.03,2.9-34.41-.32-12.73-.63-24.75,4.17-35.33,1.08-2.38,2.44-4.74,3.87-7.24,3.61-6.28,7.7-13.4,7.27-21.71-.39-7.67-2.11-15.34-3.78-22.75-1.88-8.38-3.66-16.3-3.62-24.06.03-6.49.58-14.68,4.51-20.88,2.82,9.52,4.13,19.73,5.4,29.6l3.1,24.15c.58,4.5,1.18,9.16.4,13.33-.55,2.92-1.8,5.85-3.13,8.95-1.67,3.9-3.4,7.92-4,12.52-.65,4.94-2.1,9.84-3.64,15.03-2.57,8.68-5.22,17.66-4.06,27.23.37,3.01.93,5.98,1.47,8.85,1.15,6.1,2.24,11.86,1.43,17.35-.8,5.44-3.55,11.1-8.42,17.29-3.07,3.91-8.65,11.92-11.24,16.38-2.12,3.66-3.3,7.05-3.93,10.33Z"/>
        <path class="cls-25" d="m46.41,66.49l-.16-3.05-.35-3.03c-.05-.51-.13-1.01-.22-1.51l-.26-1.5c-.15-1-.39-1.99-.61-2.98-.88-3.96-2.06-7.84-3.08-11.76-1.02-3.91-1.83-7.89-2.11-11.93h-.11c.24,4.06,1.01,8.06,2,11.99.98,3.93,2.13,7.82,2.97,11.78.21.99.43,1.97.58,2.97l.25,1.49c.09.5.17,1,.21,1.5l.32,3.01.13,3.02c.05,4.03-.19,8.08-.9,12.05-1.24,7.99-3.96,15.64-6.34,23.39-1.19,3.88-2.38,7.75-3.44,11.67-1.06,3.91-2.05,7.86-2.79,11.86-1.56,7.98-2.17,16.15-1.97,24.28.06,4.07.36,8.12.7,12.17.41,4.01.43,8.03-.04,12-.25,1.98-.59,3.96-1.09,5.89-.51,1.93-1.16,3.83-1.97,5.66-.8,1.83-1.76,3.59-2.87,5.25-2.73,4.09-5.23,8.37-7.05,12.94-.88,2.22-1.42,4.68-2.02,6.99-.63,2.44-1.16,4.92-1.47,7.42-.14,1.1-.24,2.21-.28,3.32-.11,2.75.08,5.52-.32,8.24-.16,1.12-.43,2.23-.41,3.36.03,1.33.46,2.64,1.24,3.72.53.74,1.25,1.39,2.12,1.63,1.29.36,2.62-.27,3.5-1.2.99-1.04,1.32-2.47,1.56-3.85.15-.91.18-1.86-.45-2.6-.85-1-2.25-1.28-3.11-2.29-1.08-1.25-.96-3.09-.26-4.49.69-1.38,1.23-2.22,1.43-3.89.31-2.47-.19-4.65-.39-7.09-.13-1.53.09-3.14.26-4.66.28-2.56.36-5.17,1.14-7.64,1.07-3.4,3.25-6.49,5.25-9.4,1.16-1.69,2.17-3.49,3.02-5.36.85-1.87,1.54-3.81,2.09-5.78.54-1.98.92-4,1.2-6.03.49-4.07.48-8.2.08-12.25-.35-4.02-.67-8.05-.75-12.09-.27-8.06.26-16.15,1.74-24.09.71-3.97,1.66-7.9,2.7-11.81,1.02-3.91,2.19-7.79,3.35-11.67,2.31-7.74,5-15.46,6.19-23.52.68-4.01.88-8.09.79-12.15Z"/>
      </g>
      <g id="Cigarette">
        <path class="cls-20" d="m56.14,270.89c-1.72,0-3.32-1.45-4.27-2.31-4.5-4.08-10.03-6.85-16-8.01l-.17-.03c-.83-.16-1.7-.33-2.45-.84-.85-.58-1.51-1.79-1.06-2.88.03-.06.06-.13.09-.2.01-.02.02-.05.04-.08-2.49.04-4.96-.29-7.35-.99-1.21-.35-2.66-1.23-3.18-2.38-.27-.61-.27-1.24.01-1.82.07-.16.16-.3.25-.43.12-.19.25-.4.23-.5-.02-.09-.19-.23-.25-.29-.54-.46-1.12-.86-1.73-1.28-.76-.52-1.56-1.06-2.25-1.73-1.19-1.15-2.3-3.17-1.53-5.08.26-.64.7-1.21,1.13-1.75.74-.94,1.17-1.56.95-2.23-.09-.26-.29-.5-.5-.76-.21-.26-.45-.56-.62-.91-.6-1.31.09-2.74.98-3.51.63-.55,1.37-.88,2.11-1.13-.17-.24-.31-.51-.4-.81-.21-.69-.14-1.43.19-2.01.34-.58.93-1.01,1.64-1.18.71-.17,1.43-.05,1.99.32l.18.12c.07.04.16.11.26.17-.08-.53.07-1.11.41-1.51.6-.71,1.52-.92,2.2-1.07l7.2-1.63c2.47-.56,5.03-1.14,7.65-1.03,3.01.12,5.57,1.19,7.23,3.01.42.46.79.97,1.15,1.47.79,1.09,1.53,2.12,2.66,2.46.76.23,1.61.1,2.42-.07,2.91-.62,5.73-1.85,8.15-3.56.6-.42,1.2-.89,1.78-1.35,1.67-1.3,3.39-2.65,5.49-3.26,1.27-.37,2.34-.28,3.11.26.49.35.85.97.95,1.59l4.49-2.41c2.97-1.59,6.05-3.24,9.49-3.84,4.02-.7,8.09.27,10.9,2.59.34.28.66.58.97.87.81.75,1.57,1.46,2.51,1.79.55.2,1.16.25,1.8.32.63.06,1.28.13,1.91.33,2,.63,3.28,2.35,4.53,4.21.08.12.11.27.09.42-.07.36-.12.7-.16,1.03-.13.87-.25,1.69-.62,2.63-1.27,3.17-1.83,6.63-2.38,9.98-.3,1.84-.61,3.75-1.04,5.6-1.06,4.63-3.46,10.71-8.81,13.38-2.3,1.15-4.86,1.51-7.33,1.86-.89.13-1.8.25-2.68.42-3.64.67-7.09,1.99-10.26,3.9l-.19.12c-.84.51-1.79,1.09-2.89,1.17-.76.05-1.58-.22-2.13-.73-.44-.4-.7-.93-.71-1.48-.03-1.28,1.05-2.1,2-2.82.78-.58,1.24-.97,1.35-1.37-1.9.11-3.79-.04-5.65-.45-1.08,1.55-3.07,1.7-4.99,1.85-1.75.14-3.4.26-4.35,1.35-.58.66-.84,1.67-1.09,2.64-.37,1.45-.76,2.95-2.22,3.62-.41.19-.82.27-1.22.27Zm-23.26-15.49c.14,0,.28.05.38.15.55.5.24,1.19.07,1.55-.03.06-.05.11-.07.16-.22.52.16,1.17.65,1.5.56.38,1.27.52,2.02.66l.17.03c6.17,1.2,11.89,4.06,16.54,8.28,1.45,1.31,2.96,2.44,4.25,1.85.97-.44,1.26-1.57,1.59-2.87.28-1.1.58-2.23,1.34-3.1,1.25-1.43,3.22-1.58,5.12-1.73,1.93-.15,3.6-.28,4.31-1.63.12-.23.38-.35.63-.29,2.05.49,4.16.65,6.27.47.26-.02.5.14.58.38.48,1.4-.75,2.32-1.73,3.06-.81.61-1.57,1.18-1.55,1.88,0,.31.19.53.34.67.33.3.83.47,1.29.43.82-.06,1.58-.52,2.38-1.01l.2-.12c3.29-1.99,6.87-3.35,10.64-4.05.91-.17,1.83-.3,2.73-.43,2.49-.35,4.85-.68,6.98-1.75,4.95-2.47,7.2-8.23,8.21-12.62.42-1.82.73-3.7,1.03-5.53.56-3.41,1.14-6.93,2.45-10.22.32-.81.43-1.53.55-2.37.04-.27.08-.55.13-.84-1.09-1.61-2.22-3.07-3.8-3.57-.53-.17-1.09-.22-1.69-.28-.68-.07-1.38-.14-2.07-.38-1.16-.41-2.05-1.23-2.91-2.03-.31-.29-.61-.57-.92-.82-2.55-2.11-6.28-2.99-9.98-2.35-3.26.57-6.25,2.17-9.14,3.72l-5.72,3.07s-.03.02-.05.03c-.28.14-.62.03-.76-.24-.14-.28-.04-.61.23-.76l.03-.02s.12-.09.13-.28c.03-.37-.2-.84-.5-1.05-.6-.42-1.49-.29-2.13-.1-1.89.56-3.45,1.78-5.11,3.07-.59.46-1.2.94-1.83,1.38-2.55,1.8-5.52,3.1-8.57,3.75-.96.2-1.98.35-2.98.05-1.49-.45-2.39-1.68-3.25-2.88-.36-.49-.69-.96-1.07-1.37-1.96-2.15-4.88-2.58-6.44-2.64-2.47-.1-4.95.46-7.35,1l-7.2,1.63c-.67.15-1.25.31-1.58.7-.14.17-.2.45-.14.67.03.12.09.19.16.22.16.06.28.18.34.33.06.16.05.33-.03.48-.15.27-.38.45-.67.52-.62.15-1.27-.29-1.83-.67l-.17-.11c-.3-.2-.7-.26-1.11-.16-.4.1-.74.33-.92.64-.18.31-.21.72-.09,1.12.12.4.38.71.7.87.21.1.33.32.31.56-.02.23-.18.43-.4.5-.91.27-1.94.57-2.66,1.2-.59.51-1.03,1.45-.69,2.18.1.22.28.44.47.67.25.31.54.66.7,1.12.44,1.3-.39,2.36-1.13,3.3-.38.48-.77.98-.97,1.47-.52,1.29.26,2.86,1.27,3.84.62.6,1.34,1.09,2.1,1.61.61.42,1.25.85,1.83,1.36.26.23.52.49.62.88.14.57-.16,1.03-.37,1.37-.07.11-.14.22-.18.31-.14.28-.14.57,0,.87.35.78,1.5,1.48,2.46,1.76,2.46.72,5,1.03,7.56.92,0,0,.02,0,.02,0Z"/>
        <path class="cls-19" d="m110.97,227.83c-1.1-1.64-2.34-3.39-4.23-3.98-1.21-.38-2.54-.23-3.73-.65-1.45-.51-2.47-1.77-3.66-2.75-2.84-2.35-6.81-3.1-10.44-2.47-3.32.58-6.35,2.19-9.31,3.78-1.92,1.03-3.84,2.06-5.76,3.09.81-.41.47-1.78-.27-2.31-.74-.53-1.75-.44-2.62-.18-2.71.8-4.8,2.9-7.11,4.53-2.5,1.77-5.37,3.02-8.36,3.66-.89.19-1.83.32-2.7.06-1.87-.56-2.75-2.64-4.06-4.09-1.71-1.87-4.31-2.72-6.84-2.82-2.53-.1-5.03.46-7.5,1.02-2.4.54-4.8,1.09-7.2,1.63-.69.16-1.43.34-1.89.88-.46.54-.4,1.55.27,1.78-.36.64-1.25-.06-1.86-.46-.9-.6-2.29-.27-2.83.67s-.13,2.3.85,2.78c-1.02.3-2.07.62-2.87,1.32-.8.7-1.28,1.88-.84,2.85.29.63.92,1.07,1.14,1.73.54,1.59-1.46,2.82-2.09,4.37-.62,1.53.21,3.31,1.4,4.46,1.19,1.15,2.7,1.91,3.95,2.99.19.16.38.34.44.59.11.47-.31.88-.52,1.31-.73,1.52,1.19,2.94,2.81,3.42,2.51.73,5.13,1.05,7.74.95.29.26,0,.72-.15,1.08-.33.78.15,1.71.85,2.19.7.48,1.57.62,2.4.78,6.03,1.17,11.72,4.02,16.27,8.14,1.38,1.25,3.18,2.72,4.87,1.95,2.14-.98,1.57-4.34,3.12-6.11,2.31-2.64,7.86-.36,9.5-3.47,2.1.5,4.29.67,6.44.49.66,1.96-3.36,2.71-3.31,4.77.03,1.04,1.2,1.73,2.23,1.65s1.94-.67,2.83-1.21c3.21-1.94,6.77-3.29,10.45-3.97,3.33-.62,6.83-.71,9.86-2.22,4.79-2.39,7.31-7.78,8.51-13,1.2-5.22,1.46-10.69,3.45-15.66.49-1.22.52-2.25.76-3.55Z"/>
        <path class="cls-4" d="m102.54,246.35c-2.87,1.25-4.85,3.89-7.23,5.92-2.22,1.89-4.86,3.29-7.67,4.07-.3.08-.64.16-.91,0-.27-.15-.39-.47-.56-.73-.91-1.43-3.05-1.08-4.71-.73-3.73.79-7.66.66-11.33-.36-1.04-.29-2.09-.65-3.16-.6-1.08.05-2.21.65-2.52,1.68-.12.41-.1.85-.25,1.25-.44,1.21-2.03,1.45-3.31,1.32-1.28-.13-2.73-.38-3.71.44-1.26,1.06-1.07,3.37-2.53,4.12-.91.47-2.01.07-2.96-.33-3.23-1.38-6.47-2.75-9.7-4.13-.8-.34-1.67-.75-1.99-1.56-.19-.49-.14-1.05-.35-1.54-.41-.97-1.63-1.25-2.67-1.37-2.35-.27-4.71-.39-7.07-.34-.72.01-1.63-.08-1.86-.77-.15-.46.11-.94.23-1.41.56-2.19-1.93-3.86-4.03-4.69s-4.65-2.27-4.36-4.51c.14-1.08.97-2,1.05-3.09.1-1.38-1.03-2.83-1.9-3.81-.26-.29-.61-.59-1-.8-.24.57-.3,1.19-.05,1.75.29.63.92,1.07,1.14,1.73.54,1.59-1.46,2.82-2.09,4.37-.62,1.53.21,3.31,1.4,4.46,1.19,1.15,2.7,1.91,3.95,2.99.19.16.38.34.44.59.11.47-.31.88-.52,1.31-.73,1.52,1.19,2.94,2.81,3.42,2.51.73,5.13,1.05,7.74.95.29.26,0,.72-.15,1.08-.33.78.15,1.71.85,2.19.7.48,1.57.62,2.4.78,6.03,1.17,11.72,4.02,16.27,8.14,1.38,1.25,3.18,2.72,4.87,1.95,2.14-.98,1.57-4.34,3.12-6.11,2.31-2.64,7.86-.36,9.5-3.47,2.1.5,4.29.67,6.44.49.66,1.96-3.36,2.71-3.31,4.77.03,1.04,1.2,1.73,2.23,1.65,1.03-.07,1.94-.67,2.83-1.21,3.21-1.94,6.77-3.29,10.45-3.97,3.33-.62,6.83-.71,9.86-2.22,4.79-2.39,7.31-7.78,8.51-13,.06-.26.11-.52.17-.77-1.27-.66-3.02-.51-4.4.09Z"/>
        <path class="cls-1" d="m105.64,226.17c-1.48-1.05-3.52-.63-5.23,0s-3.49,1.45-5.26,1.05c.55-.64,1.1-1.27,1.64-1.91.43-.5.87-1.24.45-1.75-.17-.21-.45-.3-.71-.37-1.95-.45-3.96.34-5.7,1.33-1.5.85-2.92,1.85-4.22,2.99-.82.72-1.62,1.5-2.61,1.93-1,.43-2.28.43-3.06-.33-.38-.37-.74-.94-1.26-.85-.19.03-.35.15-.48.28-1.31,1.24-1.06,3.43-2.02,4.95-.47.74-1.19,1.27-1.89,1.78l-3.17,2.32c-.61.45-1.24.91-1.64,1.56-.4.64-.54,1.51-.13,2.15.26.4.69.66,1.12.86,2.19,1.02,4.69,1.03,7.1,1.21,2.41.18,4.97.64,6.71,2.31.67.65,1.21,1.51,1.2,2.45-.01.81-.43,1.56-.87,2.24-.81,1.25-1.75,2.42-2.79,3.49-.54.55-1.14,1.15-1.19,1.92,1.12.84,2.6.98,3.99,1.09,2.36.19,4.74.36,7.1.06,2.35-.3,4.7-1.11,6.47-2.68.75-.66,1.39-1.46,1.75-2.39.6-1.52.42-3.23.87-4.8.87-3.08,3.98-5.19,4.65-8.32.21-.99.16-2,.22-3,.06-1.05.37-1.9.72-2.88.51-1.46.1-2.81-.24-4.26-.22-.95-.68-1.86-1.49-2.44Z"/>
        <g class="cls-10">
          <path class="cls-24" d="m99.49,247.29c-1.23-.37-2.61.05-3.58.9-.97.84-1.57,2.05-1.89,3.29-.2.78-.32,1.61-.81,2.25-.57.74-1.55,1.06-2.49,1.06-.93,0-1.84-.3-2.73-.58-.2-.07-.41-.14-.55-.29-.28-.3-.2-.8.05-1.13.25-.33.61-.54.94-.79,1.97-1.52,2.17-4.63.89-6.76-.6-1-1.48-1.84-2.51-2.39-4.13-2.22-9.41.4-13.85-1.11-.6-.2-1.23-.54-1.45-1.14-.32-.9.46-1.82,1.29-2.28,2.53-1.4,5.74-.62,8.25.81,1.08.62,2.2,1.38,3.45,1.31.16,0,.33-.04.44-.16.12-.13.12-.32.12-.49-.17-3.72-3.96-6.55-4.06-10.27,0-.12,0-.24,0-.36-.02-.02-.04-.03-.05-.04-.38-.37-.74-.94-1.26-.85-.19.03-.35.15-.48.28-1.31,1.24-1.06,3.43-2.02,4.95-.47.74-1.19,1.27-1.89,1.78-1.06.77-2.11,1.55-3.17,2.32-.61.45-1.24.91-1.64,1.56s-.54,1.51-.13,2.15c.26.4.69.66,1.12.86,2.19,1.02,4.69,1.03,7.1,1.21,2.41.18,4.97.64,6.71,2.31.67.65,1.21,1.51,1.2,2.45-.01.81-.43,1.56-.87,2.24-.81,1.25-1.75,2.42-2.79,3.49-.54.55-1.14,1.15-1.19,1.92,1.12.84,2.6.98,3.99,1.09,2.36.19,4.74.36,7.1.06,2.35-.3,4.7-1.11,6.47-2.68.75-.66,1.39-1.46,1.75-2.39.37-.92.44-1.92.55-2.92-.45-.78-1.13-1.41-1.99-1.67Z"/>
        </g>
        <g class="cls-2">
          <path class="cls-20" d="m69.55,257.24c-1.16-1.02-2.57-1.72-3.79-2.67-1.22-.95-2.29-2.3-2.31-3.84-.02-1.14.54-2.21.89-3.29.48-1.46.62-3.04.41-4.57-.03-.23-.08-.47-.23-.64-.43-.48-1.21-.07-1.65.39-1.8,1.92-2.51,4.71-4.4,6.54-.34.33-.81.65-1.27.51-.27-.08-.47-.31-.65-.52-1.33-1.55-2.72-3.34-2.6-5.38.13-2.24,1.98-3.92,3.16-5.83.36-.59.69-1.24,1.28-1.61.94-.59,2.2-.23,3.11.4.91.63,1.63,1.51,2.58,2.09.94.58,2.27.79,3.1.06.16-.24-.3-.36-.58-.4-.65-.11-.86-1.04-.52-1.61s.99-.87,1.58-1.16c2.04-1,3.9-2.36,5.48-4,.41-.42.8-.88.95-1.44.14-.56-.05-1.26-.58-1.5-.6-.28-1.39.08-1.91-.32-.46-.35-.38-1.11-.02-1.56.36-.45.91-.7,1.41-1.01.64-.39,1.19-.89,1.66-1.47-.27.14-.53.29-.8.43.81-.41.47-1.78-.27-2.31-.74-.53-1.75-.44-2.62-.18-2.71.8-4.8,2.9-7.11,4.53-2.5,1.77-5.37,3.02-8.36,3.66-.35.07-.71.14-1.06.18-.09.19-.18.39-.26.59-.09.23-.16.48-.08.72.15.44.71.54,1.17.58.74.05,1.47.11,2.21.16-.52,1.16-1.55,1.99-2.41,2.93-2.42,2.64-3.57,6.41-3.03,9.96.03.19.06.38.1.57.34,1.64,1.03,3.2,1.99,4.56.74,1.05,1.59,2.08,2.45,3.03.67.74,1.46,1.29,2.32,1.79,1.51.87,3.07,1.45,4.73,1.95,1.59.49,3.21,1,4.56,2,.5.37.95.8,1.41,1.23.06-.08.12-.16.17-.25.75.18,1.51.31,2.27.41-.49-1.42-1.34-2.7-2.46-3.69Z"/>
          <path class="cls-20" d="m103.27,248.69c-.84-.28-1.74-.31-2.6-.16-.28.05-.61.06-.88.16-.29.1-.46.35-.64.58-1.06,1.32-2.24,2.54-3.53,3.64-.72.62-1.48,1.2-2.26,1.73-.54.37-1.1.72-1.74.89-.59.15-1.22.13-1.83.11-2.44-.1-4.88-.19-7.32-.29,1.49-1.17,3.02-2.38,4-4.01s1.32-3.78.35-5.41c-.72-1.2-2.02-1.94-3.34-2.39-4-1.38-8.57-.69-12.37-2.54-.25-.12-.51-.27-.64-.51-.24-.48.12-1.03.49-1.41,2.2-2.21,5.71-3.24,6.89-6.12-3.63,1.1-6.53,3.77-9.3,6.35-.59.55-1.22,1.17-1.37,1.97-.18.98.44,1.97,1.28,2.51.84.54,1.85.72,2.84.85,2.76.38,5.56.51,8.34.39,1.24-.05,2.57-.13,3.61.55,1.38.91,1.68,2.92,1.05,4.45-.63,1.53-1.97,2.64-3.37,3.53-1.39.89-2.89,1.63-4.12,2.74-.31.28-.63.62-.68,1.04-.09.8.77,1.37,1.54,1.62.86.29,1.76.45,2.67.48.52.02,1.05,0,1.53.18.49.18.92.62.9,1.14-.03.56-.54.95-1.01,1.26-1.33.87-2.69,1.76-4.23,2.18-.92.25-1.9.34-2.78.72-.73.32-1.39.94-1.57,1.69.42.56,1.21.9,1.94.85,1.03-.07,1.94-.67,2.83-1.21,3.21-1.94,6.77-3.29,10.45-3.97,3.33-.62,6.83-.71,9.86-2.22,3.64-1.82,5.97-5.37,7.4-9.26-.44-.99-1.36-1.75-2.39-2.09Z"/>
          <path class="cls-20" d="m110.97,227.83c-1.1-1.64-2.34-3.39-4.23-3.98-1.21-.38-2.54-.23-3.73-.65-1.45-.51-2.47-1.77-3.66-2.75-.17-.14-.34-.27-.52-.4.36.6.78,1.18,1.23,1.72.13.15.27.31.41.45.07.07.34.43.43.43.44.42.92.84,1.17,1.4.14.33.19.69.34,1.01.71,1.53,3.16,1.54,3.91,3.05.23.47.26,1.03.47,1.51.36.81,1.19,1.3,1.97,1.72.39.21.82.43,1.25.55.06-.17.13-.35.2-.52.49-1.22.52-2.25.76-3.55Z"/>
          <path class="cls-20" d="m65.7,262.15c-.93-.92-1.99-1.71-3.09-2.42-1.24-.8-2.53-1.52-3.81-2.24-3.22-1.82-6.55-3.95-8.07-7.32-.44-.97-1.04-2.23-2.09-2.08-.68.1-1.1.78-1.6,1.25-.94.87-2.3,1.06-3.57,1.21-1.21.14-2.42.28-3.63.42-.28.57.37,1.14.94,1.4,2.23,1.04,4.7,1.48,7.03,2.3,2.33.82,4.64,2.16,5.75,4.36.44.87.66,1.82.89,2.77.3,1.27.6,2.53.9,3.8.12.52.13,1.24-.38,1.39-.25.07-.51-.05-.73-.17-2.45-1.28-4.66-2.97-7.11-4.24-2.29-1.19-4.9-2-7.44-1.63,4.65,1.47,8.98,3.93,12.59,7.2,1.38,1.25,3.18,2.72,4.87,1.95,2.14-.98,1.57-4.34,3.12-6.11,1.3-1.48,3.61-1.41,5.68-1.62-.08-.08-.15-.15-.23-.23Z"/>
          <path class="cls-20" d="m31.26,227.4c.42.3.92.5,1.27.88.28.3.43.8.15,1.09-.22.23-.59.22-.89.35.21.52.91.6,1.46.54s1.19-.18,1.62.17c.22.18.42.49.7.44.34-.06.35-.54.27-.87-.21-.85-.49-1.77-.12-2.56.29-.62.91-1.02,1.38-1.52.47-.5.79-1.31.37-1.85,0,0,0,0,0,0-1.04.19-2.07.42-3.1.65-1.17.27-2.34.53-3.51.8-.08.1-.15.21-.2.31-.33.62.1,1.23.6,1.58Z"/>
          <path class="cls-20" d="m26.47,243.69c-.92-.4-1.88-.73-2.81-1.12-.57-.23-1.11-.42-1.73-.45-.23-.01-.94-.06-.97.3-.02.23.32.44.46.56.28.25.49.52.63.87.28.66.34,1.39.6,2.06.47,1.25,1.62,2.16,2.89,2.61,1.26.44,2.64.46,3.97.35.3-.03.61-.06.85-.24.6-.44.39-1.39-.01-2.01-.89-1.38-2.37-2.27-3.87-2.92Z"/>
          <path class="cls-20" d="m20.11,235.69c1.24.35,2.56.18,3.82-.07,1.26-.25,2.52-.59,3.8-.58,1.09,0,2.27.32,2.92,1.2.37.5.53,1.13.91,1.63,1.09,1.42,3.42,1.15,4.74,2.36,1.12,1.03,1.22,2.87,2.39,3.84,1.19.99,2.94.69,4.44.31,2.69-.68,5.36-1.45,8-2.3-1.78-.75-3.84-.51-5.68.09-.94.3-2.1.64-2.79-.06-.69-.71-.31-1.88-.54-2.84-.35-1.46-2.04-2.15-3.54-2.3-.71-.07-1.43-.07-2.1-.3-.67-.24-1.29-.78-1.37-1.48-.05-.49.16-.98.2-1.47.07-.93-.51-1.82-1.28-2.33-.77-.51-1.72-.7-2.64-.79-1.1-.1-2.35-.14-3.07-.98-.51-.59-.57-1.43-.36-2.16.18-.63.55-1.06.96-1.5-.58.13-1.15.26-1.73.39-.69.16-1.43.34-1.89.88-.46.54-.4,1.55.27,1.78-.36.64-1.25-.06-1.86-.46-.9-.6-2.29-.27-2.83.67-.54.94-.13,2.3.85,2.78-1.02.3-2.07.62-2.87,1.32-.32.28-.58.63-.76,1.02.49.65,1.24,1.14,2.03,1.36Z"/>
        </g>
        <g class="cls-13">
          <path class="cls-20" d="m38.34,224.81c.03.3-.03.61-.17.88-.27.51-.78.83-1.21,1.21-.43.38-.82.92-.71,1.48.06.3.25.55.35.83.28.78-.13,1.64.01,2.46.17,1.01,1.14,1.7,2.11,2.02,2.16.72,4.7.08,6.28-1.56.44-.46.82-1.07.67-1.68-.16-.62-.83-1.03-.93-1.66-.05-.33.07-.67.24-.96.43-.69,1.19-1.11,1.8-1.65.25-.22.47-.49.64-.78-1.59-1.1-3.59-1.63-5.54-1.71-1.29-.05-2.57.07-3.84.27.02.03.05.06.07.09.14.23.22.49.25.76Z"/>
          <path class="cls-20" d="m22.59,238.88c.72.14,1.38.52,2.08.73.9.28,1.85.29,2.77.42.93.13,1.89.41,2.53,1.09.33.35.54.96.18,1.28-.28.26-.73.16-1.08.02-1.17-.48-2.16-1.28-3.26-1.9-1.1-.62-2.4-1.05-3.61-.69-.29.09-.59.24-.68.53-.18.53.43.96.94,1.17,2.3.95,4.75,1.69,6.7,3.24.63.5,1.19,1.08,1.76,1.65.7.71,1.39,1.43,2.09,2.14.46-.2.69-.75.66-1.26-.03-.5-.26-.97-.5-1.42-.55-1.04-1.15-2.11-1.23-3.29-.07-1.15.33-2.46-.39-3.36-.31-.39-.78-.62-1.25-.79-1.02-.37-2.1-.54-3.18-.58-1.98-.07-3.94.24-5.91.38-.66.05-1.33.09-2,.07.01.17,0,.33-.04.5.47.03.95.05,1.42.03.66-.02,1.33-.1,1.98.03Z"/>
          <path class="cls-20" d="m51.02,244.45c.04-.22.09-.45,0-.65-.14-.3-.54-.37-.87-.38-1.12-.03-2.25.23-3.26.73-.51.25-.98.57-1.42.93-.34.28-.63.33-1.05.4-.6.1-1.17.39-1.6.83-.34.36-.54,1.04-.1,1.27.29.16.82.11.81.44,0,.08-.05.16-.1.23-.49.61-1.43.51-2.22.5-.76,0-1.52.14-2.23.44-.11.05-.24.11-.28.23-.08.22.17.41.39.48.79.27,1.66.16,2.48.03.77-.12,1.53-.25,2.29-.4.42-.08.85-.17,1.23-.36.63-.31,1.09-.88,1.7-1.23.97-.57,2.27-.51,3.19.14.25.18.49.41.79.49.3.08.7-.06.74-.37.02-.15-.05-.3-.11-.43-.44-1.03-.57-2.19-.37-3.29Z"/>
          <path class="cls-20" d="m65.04,240.02c-.74-.47-1.72-.35-2.53-.69-.65-.28-1.13-.82-1.66-1.29-.38-.34-.82-.66-1.33-.77-.19-.04-.44-.09-.63-.01-.15.06-.27.21-.37.33-.19.21-.33.46-.27.75.05.25.25.43.43.6.26.23.52.44.8.64.3.21.62.43.79.75.34.62.03,1.39.17,2.08.03.14.08.28.18.39.26.28.73.19,1.03-.05.3-.24.49-.58.76-.84.68-.65,1.73-.72,2.54-1.21.16-.1.34-.27.28-.46-.03-.09-.11-.16-.19-.21Z"/>
          <path class="cls-20" d="m81.1,221.25c.1.18.34.23.55.25,2.34.23,4.67-.31,6.99-.62,2.33-.31,4.81-.38,6.89.71.8.42,1.54,1.01,2.43,1.2.3.06.64.09.87.29.3.26.32.71.41,1.1.11.49.36.97.79,1.23s1.04.24,1.38-.12c.35-.37.34-.94.31-1.45-.03-.48-.07-.96-.14-1.44-.78-.59-1.47-1.32-2.22-1.95-2.84-2.35-6.81-3.1-10.44-2.47-2.77.48-5.35,1.69-7.85,3.01-.01.09,0,.19.04.27Z"/>
        </g>
        <path class="cls-11" d="m105.4,228.47c-.68-.89-1.65-1.66-2.77-1.73-.87-.06-1.7.3-2.52.59-1.4.49-2.87.77-4.35.85-.17,0-.37.03-.46.18-.13.22.12.48.36.59,1.14.53,2.47.2,3.71-.04,1.24-.24,2.68-.33,3.59.54.82.78.91,2.03,1.03,3.16.02.21.05.43.18.59.19.25.53.31.84.29.81-.06,1.54-.6,1.91-1.31.17-.33.3-.7.13-1.04-.2-.41-.48-.79-.71-1.18-.29-.51-.59-1.01-.95-1.47Z"/>
        <g>
          <path class="cls-17" d="m116.23,219.25s36.67,4.75,98.79,2.16c62.12-2.59,151.85.77,151.85.77,0,0,6.47,18.64,0,36.33,0,0-97.5-.86-110.87,0s-59.53,1.29-82.4,3.02-64.71,0-69.46,0-8.2.67-14.67.77c0,0,8.63-2.06,8.63-5.94s-3.02-11.22,2.16-17.69,10.78-15.53,15.96-19.41Z"/>
          <path class="cls-12" d="m131.46,224.97c20.51,1.81,41.14,3.62,61.65,1.84,6.16-.54,12.29-1.4,18.44-2.03,17.03-1.75,34.18-1.76,51.29-1.62,3.69.03,7.7-.04,10.58-2.34-1.03-.14-2.05-.27-3.08-.39-18.9,0-38.17.26-55.33.98-47.12,1.96-79.59-.29-92.53-1.5-.59.31-1.16.65-1.68,1.03,1.97,3.3,7.27,3.73,10.66,4.03Z"/>
          <path class="cls-5" d="m288.07,230.07c0-2.66-.46-5.99-2.99-6.83-2.8-.93-5.37,2.31-5.57,5.25-.2,2.94.91,5.88.59,8.81-.53,4.78-4.84,8.43-9.46,9.77-4.62,1.34-9.54.86-14.34.49-18.65-1.43-37.44-.99-56,1.33-18.68,2.33-37.49,6.55-56.14,3.99-8.27-1.14-16.48-3.61-24.81-2.94-2.23.18-4.49.58-6.68.13-2.19-.45-4.35-2.05-4.6-4.27-.17-1.48.53-2.91,1.2-4.25.21-.41.42-.83.62-1.25,1.69-3.37,3.35-6.76,4.99-10.16.82-1.7,1.63-3.4,2.44-5.11.71-1.5,1.68-3.07,2.09-4.69.07-.26.09-.5.1-.73-2.17-.22-3.29-.37-3.29-.37-5.18,3.88-10.79,12.94-15.96,19.41s-2.16,13.8-2.16,17.69-8.63,5.94-8.63,5.94c6.47-.1,9.92-.77,14.67-.77s46.59,1.73,69.46,0c22.86-1.73,69.02-2.16,82.4-3.02,4.22-.27,16.84-.37,32.12-.38.03-.54.04-1.07.04-1.59-.03-8.82-.06-17.64-.09-26.47Z"/>
          <path class="cls-6" d="m293.54,227.46c0-1.74-5.36-4.77-9.82-6.99-2.09-.01-4.18-.02-6.29-.03.27,6.71,7.1,18.16,6.7,18.96-.46.93-3.9,3.66-5.97,5.27-2.07,1.61-.92,4.59-1.38,7.34-.47,2.75-6.65,2.3-25.24,2.75-18.59.46-63.57,1.15-78.26,2.47-14.69,1.33-22.95-.41-33.51-.41s-32.59.92-35.34,0c-2.75-.92-.23-3.67-1.15-5.51-.92-1.84-1.84-3.67-2.07-5.74s.92-3.67,2.52-6.19c1.61-2.52,10.56-14.47,13.08-16.99.76-.76,1.06-1.83,1.11-2.96-1.13-.13-1.71-.2-1.71-.2-5.18,3.88-10.79,12.94-15.96,19.41s-2.16,13.8-2.16,17.69-8.63,5.94-8.63,5.94c6.47-.1,9.92-.77,14.67-.77s46.59,1.73,69.46,0c22.86-1.73,69.02-2.16,82.4-3.02,4.22-.27,16.84-.37,32.12-.38l3.13-7.26s2.3-20.43,2.3-23.41Z"/>
          <path class="cls-21" d="m89.48,262.86c-.29,0-.53-.21-.56-.5-.04-.29.15-.55.43-.62,2.28-.55,8.19-2.58,8.19-5.39,0-.87-.16-1.95-.35-3.19-.62-4.1-1.48-9.72,2.63-14.85,1.56-1.95,3.21-4.2,4.79-6.37,3.74-5.11,7.6-10.39,11.27-13.14.12-.09.27-.13.41-.11,12.67,1.64,49.6,4.2,98.69,2.15,61.43-2.56,151,.74,151.9.77.23,0,.44.16.51.38.07.19,6.46,19.04,0,36.71-.08.22-.29.37-.53.37,0,0,0,0,0,0-.97,0-97.63-.85-110.83,0-5.4.35-16.1.63-28.49.95-17.94.46-40.26,1.04-53.9,2.07-18.52,1.4-49.77.53-63.11.15-3.19-.09-5.49-.15-6.39-.15-2.29,0-4.32.16-6.47.33-2.28.18-4.86.39-8.19.44,0,0,0,0,0,0Zm14.67-1.9c.92,0,3.23.06,6.42.15,13.33.37,44.53,1.24,62.99-.15,13.66-1.03,36.01-1.61,53.96-2.08,12.38-.32,23.07-.6,28.45-.94,12.8-.83,103.65-.06,110.51,0,5.62-15.83.82-32.54-.02-35.21-6.57-.24-92.12-3.23-151.41-.76-48.88,2.04-85.74-.49-98.66-2.13-3.49,2.69-7.23,7.81-10.85,12.77-1.6,2.18-3.24,4.44-4.82,6.41-3.8,4.75-2.99,10.08-2.4,13.97.2,1.29.36,2.4.36,3.36,0,2.44-2.83,4.18-5.33,5.24,1.57-.08,2.95-.19,4.24-.3,2.17-.17,4.22-.34,6.56-.34Z"/>
        </g>
        <g>
          <path class="cls-22" d="m277.82,217.72s86.39-.65,97.98,1.53c0,0,8.75,16.4,0,40.9,0,0-52.71-.66-64.96,0s-31.06-.22-33.03.87c-1.97,1.09-.66-4.16,0-5.91.66-1.75,3.28-4.81,2.62-6.56-.66-1.75-1.31-2.19-.22-3.06,1.09-.87,7.22-1.91,6.34-6.09-.87-4.18-1.09-3.97-1.97-5.93-.87-1.97-4.37-4.16-6.78-15.75Z"/>
          <path class="cls-15" d="m280.89,219.54c.92.47,2.16.49,3.16.64,1.44.22,2.87.42,4.32.59,5.77.7,11.59,1.01,17.4,1.13,5.83.12,11.65.04,17.48-.06.7-.01,1.39-.02,2.09-.04,3.38-.06,6.76-.12,10.14-.18,12.69-.23,25.39-.46,38-1.89.52-.06,1.14-.28,1.54-.61-12.57-1.8-79.03-1.52-94.14-1.43-.53.59-.91,1.37,0,1.84Z"/>
          <path class="cls-9" d="m286.57,239.4c.87,4.18-5.25,5.22-6.34,6.09-1.09.87-.44,1.31.22,3.06.66,1.75-1.97,4.81-2.62,6.56-.66,1.75-1.97,7,0,5.91,1.97-1.09,20.78-.22,33.03-.87,12.25-.66,64.96,0,64.96,0,5.41-15.14,4.13-27.18,2.37-34.17-.7,3.33-1.39,6.66-2.09,9.99-.73,3.5-1.56,7.18-3.98,9.81-3.7,4.02-9.84,4.32-15.3,4.24-9.93-.14-19.89-.63-29.79.24-6.09.54-12.14,1.59-18.25,1.66-3.17.03-6.34-.2-9.51-.43-4.38-.32-8.76-.64-13.14-.97,4.13-4.97,5.73-12.62,2.05-17.94-1.37-1.97-3.31-3.46-4.93-5.23-.86-.94-1.62-1.97-2.28-3.07-.64-1.06-1.04-2.22-1.63-3.3-.14-.25-.57-.81-1.06-1.28,2.37,9.87,5.51,11.91,6.34,13.76.87,1.97,1.09,1.75,1.97,5.93Z"/>
          <path class="cls-7" d="m286.57,239.4c.87,4.18-5.25,5.22-6.34,6.09-1.09.87-.44,1.31.22,3.06.66,1.75-1.97,4.81-2.62,6.56-.66,1.75-1.97,7,0,5.91,1.97-1.09,20.78-.22,33.03-.87,12.25-.66,64.96,0,64.96,0,4.32-12.1,4.37-22.22,3.32-29.37-1.51,2.9-1.36,6.4-1.73,9.68-.5,4.39-2.03,8.6-3.54,12.75-.17.48-.36.98-.75,1.31-.42.36-1,.46-1.55.53-9.34,1.26-18.8-.54-28.22-.76-10.64-.25-21.24,1.51-31.89,1.54-10.01.02-20.01-1.49-30.01-.89.8-1.47,1.62-2.99,1.75-4.65.06-.68,0-1.39.27-2.02.39-.91,1.36-1.41,2.17-1.98,2.39-1.7,3.76-4.74,3.46-7.66-.15-1.44-.67-2.8-1.41-4.03-1.34-2.21-3.36-4.14-5.42-5.69-.26-.2-.56-.34-.87-.41,1.45,2.75,2.73,3.9,3.21,4.99.87,1.97,1.09,1.75,1.97,5.93Z"/>
          <path class="cls-26" d="m277.35,261.74c-.31,0-.53-.13-.65-.24-1.34-1.15.57-6.53.59-6.58.23-.61.66-1.34,1.12-2.1.83-1.39,1.86-3.13,1.51-4.06-.15-.39-.29-.72-.42-1-.43-.94-.8-1.76.38-2.7.32-.26.89-.49,1.61-.77,2.69-1.07,5.06-2.25,4.53-4.76-.67-3.21-.94-3.76-1.43-4.76-.14-.29-.31-.62-.5-1.06-.18-.41-.52-.86-.94-1.43-1.5-2.03-4.01-5.43-5.88-14.43-.03-.17,0-.34.11-.47.11-.13.27-.21.44-.21,3.53-.03,86.58-.63,98.09,1.54.17.03.31.14.4.29.09.17,2.25,4.27,3.34,11.44,1.01,6.6,1.25,17.14-3.31,29.91-.08.23-.29.38-.53.38,0,0,0,0,0,0-.53,0-52.83-.65-64.92,0-5.39.29-12.06.28-17.96.28-6.81,0-13.85-.01-14.82.53-.29.16-.54.22-.74.22Zm1.17-43.46c1.8,8.24,4.13,11.4,5.54,13.31.47.63.83,1.13,1.06,1.65.19.42.34.74.48,1.02.53,1.08.82,1.68,1.52,5.03.76,3.66-2.98,5.15-5.22,6.05-.58.23-1.13.45-1.32.61-.49.39-.48.41-.06,1.35.13.29.29.64.45,1.07.54,1.44-.59,3.35-1.6,5.04-.43.72-.83,1.41-1.03,1.92-.72,1.93-1.2,4.68-.94,5.27.03-.01.07-.03.13-.06,1.18-.65,6.35-.68,15.37-.67,5.88,0,12.54.01,17.9-.27,11.56-.62,59.65-.06,64.59,0,4.33-12.34,4.1-22.53,3.13-28.92-.92-6.04-2.64-9.92-3.11-10.9-11.84-1.99-88.74-1.53-96.9-1.48Z"/>
        </g>
        <g class="cls-14">
          <ellipse class="cls-23" cx="333.91" cy="243.41" rx="3.01" ry="1.41"/>
          <path class="cls-23" d="m298.22,250.39c0,.96-.91,1.74-2.04,1.74s-2.04-.78-2.04-1.74.91-1.74,2.04-1.74,2.04.78,2.04,1.74Z"/>
          <path class="cls-23" d="m358.92,226.74c0,.96-.91,1.74-2.04,1.74s-2.04-.78-2.04-1.74.91-1.74,2.04-1.74,2.04.78,2.04,1.74Z"/>
          <path class="cls-23" d="m364.66,256.04c-.52-.15-1.07-.3-1.6-.17s-1.01.63-.91,1.16c.05.24.21.46.39.62.53.46,1.38.56,1.96.15.57-.41.72-1.34.23-1.85"/>
          <path class="cls-23" d="m321.5,253.78c-.76.05-1.5.23-2.2.52-.34.15-.7.35-.83.71-.16.47.18.99.63,1.19.45.21.97.18,1.46.15l2.29-.15c.22-.01.48-.05.59-.25.05-.08.06-.18.06-.28.01-.96-.83-1.84-1.79-1.88"/>
          <path class="cls-23" d="m325.59,253.77c-.43-.11-.86.36-.79.79.07.44.54.74.98.69.39-.04.77-.37.78-.76.01-.4-.43-.76-.8-.6"/>
          <path class="cls-23" d="m318.34,234.22c-.72-.15-1.47-.2-2.21-.15-.49.04-1.09.24-1.13.73-.04.56.68.81,1.24.87,1.04.12,2.07.24,3.11.36.17.02.38.03.5-.1.09-.1.11-.25.09-.38-.07-.73-.88-1.28-1.58-1.1"/>
          <path class="cls-23" d="m332.12,224.72c-1.17-.1-2.5-.15-3.32.68-.08.08-.16.19-.17.3,0,.19.18.34.35.43.95.53,2.07.75,3.15.63.23-.03.46-.07.65-.18.33-.2.52-.61.46-.99-.07-.38-.38-.7-.76-.78"/>
          <path class="cls-23" d="m289.91,255.97c-.09.57-.43,1.1-.92,1.42-.39.25-.85.36-1.31.46-.47.11-.95.22-1.42.33-.43.1-.88.2-1.32.15-.92-.1-1.68-1.31-.75-1.96.35-.24.89-.26,1.3-.32.69-.09,1.39-.15,2.08-.17.78-.02,1.56,0,2.34.08Z"/>
          <path class="cls-23" d="m375.54,246.04c-.73-.35-1.68-.2-2.26.36-.13.13-.25.29-.3.47-.1.42.24.85.65.99.41.15.86.08,1.29,0,.46-.08.97-.19,1.27-.55s.21-1.05-.25-1.15"/>
          <path class="cls-23" d="m370.09,236.39c-.22-.1-.44-.2-.66-.3-.12-.55.54-.94,1.11-1.01.44-.05.98.04,1.17.44.21.45-.2.99-.68,1.11-.48.12-.99-.05-1.45-.22"/>
          <path class="cls-23" d="m340.66,230.2c.45.33,1.16.22,1.49-.24.33-.45.23-1.15-.21-1.51-.43-.35-1.13-.32-1.54.06-.28.26-.42.67-.31,1.03.11.36.49.64.87.57"/>
          <path class="cls-23" d="m292.11,223.04c1,.31,2.06.42,3.1.32.42-.04.86-.12,1.19-.39.33-.27.5-.77.28-1.13-.19-.31-.58-.41-.94-.48-2.02-.37-4.11-.31-6.1.19-.19.05-.41.12-.5.3-.13.29.17.59.46.75.88.48,1.88.73,2.88.72"/>
          <path class="cls-23" d="m353.18,219.77c-1.04-.48-2.27-.55-3.36-.18.88.75,2.2.95,3.26.48"/>
          <path class="cls-23" d="m314.28,244.99c-.61-.35-1.4-.46-2.02-.13-.62.33-.97,1.18-.62,1.79.39.7,1.36.78,2.16.73.51-.03,1.03-.09,1.47-.36.43-.27.74-.81.58-1.29-.21-.68-1.08-.83-1.79-.87-.33-.11-.16-.73.18-.66.34.07.25.71-.1.68"/>
          <path class="cls-23" d="m354.86,248.07c-.83-.11-1.69-.02-2.48.28-.37.14-.75.34-.97.66s-.26.81,0,1.11c.19.21.49.28.77.34.25.05.5.11.75.16.58.13,1.17.25,1.76.18s1.18-.38,1.43-.92c.25-.54.02-1.29-.54-1.48"/>
          <path class="cls-23" d="m350.88,243.96c-.31-.1-.62-.23-.81-.49-.19-.26-.23-.66,0-.88.17-.16.44-.19.67-.15.41.07.81.35.86.76.05.41-.47.81-.79.56"/>
          <path class="cls-23" d="m306.83,235.36c-.77-.16-1.61-.23-2.32.11-.71.34-1.22,1.21-.91,1.94.37.88,1.55,1,2.5.94.29-.02.59-.04.86-.15.92-.35,1.25-1.71.6-2.45"/>
          <path class="cls-23" d="m310.91,230.35c.32-.3.69-.6,1.13-.59.44.01.85.53.6.89-.12.17-.33.24-.54.25-.39.02-.79-.17-1.03-.48"/>
          <path class="cls-23" d="m373.79,224.85c-.76-.21-1.56-.43-2.32-.21-.76.21-1.41,1.02-1.14,1.77.11.32.38.57.65.79.72.57,1.57.99,2.46,1.21.64.16,1.4.19,1.89-.25.42-.38.52-1.04.34-1.59-.18-.54-.6-.98-1.06-1.32"/>
        </g>
        <path class="cls-11" d="m86.34,228.86c.72-.49,1.37-1.08,2.12-1.53s1.61-.77,2.48-.67c.29.04.65.22.61.51-.03.18-.19.29-.34.39-1.62,1-3.35,1.8-5.16,2.39-.96.31-1.97.57-2.99.47-.28-.03-.55-.09-.82-.17,1.14.04,2.29-.34,3.28-.88.29-.16.56-.33.83-.51Z"/>
        <path class="cls-11" d="m89.24,233.36c3.31.92,6.9,1.5,10.11.29.56-.21,1.12-.49,1.48-.96.36-.47.48-1.18.12-1.66-.36-.49-1.05-.59-1.67-.61-2.58-.07-5.13.48-7.67.87-1.65.25-3.33.43-5,.33-.41-.02-.81-.07-1.21-.13-.24-.04-.66-.17-.79.15-.1.26.57.39.74.45.39.15.79.29,1.19.43.89.31,1.79.59,2.7.84Z"/>
        <g class="cls-16">
          <path class="cls-20" d="m46.21,225.33c.63.16,1.27.24,1.91.3-1.09-.74-2.25-1.35-3.51-1.78-.19-.06-.34-.16-.48-.27-1.72-.32-3.44-.31-5.2-.31-.05.01-.11.02-.16.03-.1.02-.2.04-.29.06-.38.09-.76.19-1.09.41.98.62,2.29.59,3.23,1.27.09.07.19.15.19.27,0,.15-.14.26-.27.32-.77.38-1.74.35-2.41.89-.06.05-.12.11-.12.19,0,.13.15.19.28.22l1.34.32c.05.11-.07.22-.17.27-.78.38-1.86.18-2.4.86.4.11.81.22,1.21.34.27.07.59.22.59.5,0,.2-.18.34-.33.47-.3.25-.57.54-.79.85-.05.07-.11.16-.1.25.02.28.53.28.57.56.04.21-.21.33-.34.5-.19.25-.09.62.13.84.22.22.53.31.82.4.25.08.52.16.78.14s.54-.16.64-.4c.06-.15.06-.32.03-.47-.05-.28-.18-.55-.36-.77-.13-.15-.3-.31-.28-.51.01-.14.12-.25.24-.34.33-.24.74-.34,1.07-.57.33-.23.58-.7.35-1.04-.16-.23-.51-.43-.38-.68.05-.09.14-.13.23-.17.63-.28,1.28-.51,1.94-.7.14-.04.28-.08.38-.18.1-.1.14-.28.03-.38-.06-.06-.15-.08-.23-.09-.29-.06-.57-.17-.81-.34-.07-.04-.14-.11-.13-.19.01-.09.12-.14.21-.16l1.28-.3c.17-.04.38-.11.43-.28.09-.32-.43-.45-.62-.72.88-.15,1.75.19,2.61.4Z"/>
          <path class="cls-20" d="m38.58,245.73c-.67.74-.39,2.01.38,2.65.77.64,1.84.75,2.84.67.93-.08,1.84-.32,2.69-.7.96-.43,1.84-1.05,2.84-1.4,1-.35,2.2-.38,3.02.3.28.23.5.53.71.83,1.18,1.65,2.36,3.3,3.54,4.95-.96-.05-1.7-.88-2.15-1.73-.45-.85-.75-1.8-1.39-2.52-.72-.79-1.98-1.24-3.03-.99-.43.1-.81.34-1.19.57-.8.48-1.64.9-2.5,1.26-1.13.47-2.34.83-3.55.68s-2.41-.93-2.74-2.1c-.25-.88-.07-1.76.51-2.46Z"/>
          <path class="cls-20" d="m63.38,239.33c.8.47,1.7.78,2.62.9.15.02.31.05.39.16.1.14.03.36-.11.47-.14.11-.33.13-.51.13-1.29.05-2.52-.51-3.64-1.16-1.12-.65-2.19-1.4-3.41-1.81-.21-.07-.47-.15-.56-.38-.09-.22.02-.45.17-.62.25-.27.6-.16.91-.07.47.15.93.29,1.37.52.45.25.88.55,1.3.85.48.35.96.7,1.47,1Z"/>
          <path class="cls-20" d="m29.53,239.57c.67.22,1.38.54,1.7,1.16-.82.03-1.65-.09-2.43-.34-.11.23.18.44.42.54.71.31,1.37.75,1.93,1.29.24.23.45.66.18.85-.19.13-.45,0-.65-.13-1.01-.67-2.03-1.34-3.04-2.01-.35-.23-.71-.48-.89-.85.48-.11.98-.15,1.47-.1.09-.12-.1-.24-.25-.27-1.04-.18-2.07-.37-3.11-.55-.52-.09-1.04-.18-1.56-.28-.26-.05-.52-.09-.77-.14-.24-.04-.52-.06-.76-.13-.27-.09.22-.14.31-.14.39-.04.79,0,1.18.03,1,.07,1.99.17,2.98.31.99.15,1.96.35,2.92.64.12.04.24.07.35.11Z"/>
          <path class="cls-20" d="m98.53,226.5c1.14-.7,1.53-2.29,1.1-3.55s-1.52-2.22-2.73-2.8c-2.12-1.02-4.59-1.03-6.93-.71-1.87.25-3.73.71-5.39,1.6-.22.12-.47.34-.36.57,3.53-.68,7.18-1.22,10.71-.5.81.16,1.63.4,2.29.89.67.49,1.16,1.27,1.12,2.1-.03.58-.31,1.13-.37,1.71-.01.14-.02.29.05.41.13.23.47.28.71.17.24-.11.42-.33.58-.55"/>
          <path class="cls-20" d="m65.95,246.46c-.23.65-.6,1.26-.75,1.94-.28,1.26.32,2.66,1.42,3.34.02-1.06.12-2.11.32-3.15.07-.39.21-.84.59-.95.25-.08.51.03.76.12.89.32,1.85.44,2.79.32.28-.03.63-.22.53-.48-.06-.14-.23-.2-.3-.33-.14-.29.29-.5.6-.53,2.67-.25,5.43.01,7.96-.89-2.38-.23-4.77-.29-7.15-.17-1.66.08-3.49.19-4.79-.84-.49-.39-1.04-1.12-1.75-.85-.6.23-.13.78-.05,1.2.08.42-.02.88-.16,1.28Z"/>
        </g>
      </g>
    </g>
  </g>
</svg>