<?xml version="1.0" encoding="utf-8"?>
<!-- Generator: Adobe Illustrator 22.0.1, SVG Export Plug-In . SVG Version: 6.00 Build 0)  -->
<svg version="1.1" id="Capa_1" xmlns="http://www.w3.org/2000/svg" xmlns:xlink="http://www.w3.org/1999/xlink" x="0px" y="0px"
	 viewBox="0 0 512 512" style="enable-background:new 0 0 512 512;" xml:space="preserve">
<style type="text/css">
	.st0{fill:#FFFFFF;}
</style>
<g>
	<g>
		<path class="st0" d="M268.7,243.4c-3.9-3.9-10.2-3.9-14.1,0c-3.9,3.9-3.9,10.2,0,14.1c3.9,3.9,10.2,3.9,14.1,0
			C272.6,253.6,272.6,247.3,268.7,243.4z"/>
	</g>
</g>
<g>
	<g>
		<path class="st0" d="M395.9,116.1c-19.5-19.5-51.2-19.5-70.7,0c-19.5,19.5-19.5,51.2,0,70.7c19.5,19.5,51.2,19.5,70.7,0
			C415.5,167.2,415.5,135.6,395.9,116.1z M381.8,172.6c-11.7,11.7-30.7,11.7-42.4,0c-11.7-11.7-11.7-30.7,0-42.4
			c11.7-11.7,30.7-11.7,42.4,0C393.5,141.9,393.5,160.9,381.8,172.6z"/>
	</g>
</g>
<g>
	<g>
		<path class="st0" d="M509.1,2.9c-2-2-4.6-3-7.4-2.9c-2.3,0.1-56.1,2.2-120.1,24.9c-51.3,18.1-94,44-127,77
			c-7.4,7.4-14.6,15.2-21.5,23.4c-32.6-19.2-58.8-13.2-75.3-4.3C119.6,141.4,96,196.7,96,236.3c0,4,2.4,7.7,6.2,9.2
			c1.2,0.5,2.5,0.8,3.8,0.8c2.6,0,5.2-1,7.1-2.9c20.1-20.1,44.9-18.8,52.9-17.8l3.5,3.5c-6.9,16.4-12.4,32.7-16.5,48.6
			c-1.5,5.7-1,11.8,1.2,17.4c-9.6,4.4-18.9,11-27,19c-25.7,25.7-31,88.5-31.2,91.1c-0.2,2.9,0.8,5.8,2.9,7.9
			c1.9,1.9,4.4,2.9,7.1,2.9c0.3,0,0.5,0,0.8,0c2.7-0.2,65.4-5.4,91.1-31.2c8.1-8.1,14.6-17.4,19-27c5.9,2.3,11.9,2.6,17.4,1.2
			c15.9-4.1,32.2-9.6,48.6-16.5l3.5,3.5c1.1,8.1,2.3,32.9-17.8,52.9c-2.9,2.9-3.7,7.2-2.2,10.9c1.5,3.7,5.2,6.2,9.2,6.2
			c39.6,0,94.9-23.6,115.3-61.7c8.9-16.5,14.9-42.7-4.3-75.3c8.1-6.9,16-14.1,23.4-21.5c33-33,58.9-75.8,77-127
			c22.6-64,24.8-117.8,24.9-120.1C512.1,7.6,511,4.9,509.1,2.9z M118.4,214.8c6.2-30.1,24.3-63.1,48.7-76.2
			c16.4-8.8,34.2-7.9,53.3,2.5c-16.2,21.3-30.3,44.3-42,68.5c-0.1-0.1-1.9-2.4-5.3-3.1C171.7,206.2,145.2,200.5,118.4,214.8z
			 M183.8,370.6c-13.8,13.8-46,21-66.4,24c3-20.4,10.2-52.6,24-66.4c7.7-7.7,16.6-13.5,25.6-16.8l33.7,33.7
			C197.3,354,191.5,362.9,183.8,370.6z M229.4,339.6c-2.9,0.7-6.2-0.3-8.7-2.8c-12.9-12.9-18-18-19.6-19.6
			c-2.9-2.9-10.1-10.1-25.8-25.8c-2.5-2.5-3.6-5.9-2.8-8.7c3.2-12.5,7.4-25.3,12.5-38.2l82.7,82.7
			C254.7,332.2,241.9,336.4,229.4,339.6z M373.4,344.9c-13.1,24.5-46.1,42.5-76.2,48.7c9.6-18,11.7-41,8.2-54.9
			c-0.8-3.2-2.9-4.9-3-5.1c24.2-11.7,47.2-25.8,68.5-42C381.3,310.7,382.1,328.5,373.4,344.9z M395.9,243.4
			c-9,9-18.7,17.7-28.8,25.9c-24.3,19.6-51.1,36.2-79.7,49.4l-94-94c13.2-28.6,29.8-55.4,49.4-79.7c8.2-10.1,16.9-19.8,25.9-28.8
			c29.6-29.6,67.9-53.2,113.7-70.2l83.8,83.8C449.1,175.5,425.6,213.7,395.9,243.4z M473.3,108.6l-69.9-69.9
			c38.1-11.8,71.2-16.3,87.7-17.8C489.6,37.4,485.1,70.5,473.3,108.6z"/>
	</g>
</g>
<g>
	<g>
		<path class="st0" d="M240.4,413c-3.9-3.9-10.2-3.9-14.1,0l-28.3,28.3c-3.9,3.9-3.9,10.2,0,14.1c3.9,3.9,10.2,3.9,14.1,0l28.3-28.3
			C244.3,423.3,244.3,417,240.4,413z"/>
	</g>
</g>
<g>
	<g>
		<path class="st0" d="M99,271.6c-3.9-3.9-10.2-3.9-14.1,0l-28.3,28.3c-3.9,3.9-3.9,10.2,0,14.1c3.9,3.9,10.2,3.9,14.1,0L99,285.8
			C102.9,281.9,102.9,275.5,99,271.6z"/>
	</g>
</g>
<g>
	<g>
		<path class="st0" d="M169.7,427.2c-3.9-3.9-10.2-3.9-14.1,0l-67.7,67.7c-3.9,3.9-3.9,10.2,0,14.1c3.9,3.9,10.2,3.9,14.1,0
			l67.7-67.7C173.6,437.4,173.6,431.1,169.7,427.2z"/>
	</g>
</g>
<g>
	<g>
		<path class="st0" d="M89.7,427.2c-3.9-3.9-10.2-3.9-14.1,0L7.8,494.9c-3.9,3.9-3.9,10.2,0,14.1c3.9,3.9,10.2,3.9,14.1,0l67.7-67.7
			C93.6,437.4,93.6,431.1,89.7,427.2z"/>
	</g>
</g>
<g>
	<g>
		<path class="st0" d="M84.8,342.3c-3.9-3.9-10.2-3.9-14.1,0L2.9,410.1c-3.9,3.9-3.9,10.2,0,14.1c3.9,3.9,10.2,3.9,14.1,0l67.7-67.7
			C88.7,352.6,88.7,346.2,84.8,342.3z"/>
	</g>
</g>
<g>
	<g>
		<path class="st0" d="M311.1,200.9c-3.9-3.9-10.2-3.9-14.1,0l-14.1,14.1c-3.9,3.9-3.9,10.2,0,14.1c3.9,3.9,10.2,3.9,14.1,0
			l14.1-14.1C315,211.2,315,204.8,311.1,200.9z"/>
	</g>
</g>
</svg>
