<?xml version="1.0" encoding="utf-8"?>
<!-- Generator: Adobe Illustrator 22.0.1, SVG Export Plug-In . SVG Version: 6.00 Build 0)  -->
<svg version="1.1" id="Layer_1" xmlns="http://www.w3.org/2000/svg" xmlns:xlink="http://www.w3.org/1999/xlink" x="0px" y="0px"
	 viewBox="0 0 512 512" style="enable-background:new 0 0 512 512;" xml:space="preserve">
<style type="text/css">
	.st0{fill:#737D97;}
</style>
<g>
	<g>
		<path class="st0" d="M496.7,312.1l-47.1-36.8c0.6-5.7,1.1-12.3,1.1-19.3c0-7-0.5-13.7-1.1-19.3l47.1-36.8
			c8.7-6.9,11.1-19.2,5.6-29.4l-48.9-84.7c-5.2-9.6-16.7-14.5-28.3-10.2l-55.5,22.3c-10.6-7.7-21.8-14.2-33.3-19.3l-8.4-58.9
			C326.3,8.4,316.6,0,305.1,0H207c-11.5,0-21.2,8.4-22.6,19.5l-8.5,59.1c-11.2,5-22.2,11.4-33.3,19.3L87,75.6
			c-10.4-4-22.9,0.5-28.1,10l-49,84.8c-5.8,9.8-3.4,22.5,5.5,29.5l47.1,36.8c-0.7,7.2-1.1,13.4-1.1,19.3s0.4,12.1,1.1,19.3
			l-47.1,36.8c-8.7,6.9-11.1,19.2-5.5,29.4l48.9,84.7c5.2,9.5,16.6,14.5,28.3,10.2l55.5-22.3c10.6,7.7,21.8,14.1,33.3,19.3l8.4,58.9
			c1.4,11.2,11.1,19.7,22.6,19.7h98.1c11.5,0,21.2-8.4,22.6-19.5l8.5-59.1c11.2-5.1,22.1-11.4,33.3-19.4l55.7,22.4
			c2.7,1,5.5,1.6,8.4,1.6c8.3,0,15.9-4.5,19.7-11.6l49.2-85.1C507.8,331.3,505.4,319.1,496.7,312.1z M256,341.3
			c-47.1,0-85.3-38.3-85.3-85.3s38.3-85.3,85.3-85.3s85.3,38.3,85.3,85.3S303.1,341.3,256,341.3z"/>
	</g>
</g>
</svg>
