<?xml version="1.0" encoding="utf-8"?>
<!-- Generator: Adobe Illustrator 22.0.1, SVG Export Plug-In . SVG Version: 6.00 Build 0)  -->
<svg version="1.1" id="Capa_1" xmlns="http://www.w3.org/2000/svg" xmlns:xlink="http://www.w3.org/1999/xlink" x="0px" y="0px"
	 viewBox="0 0 93.6 93.6" style="enable-background:new 0 0 93.6 93.6;" xml:space="preserve">
<style type="text/css">
	.st0{fill:#737D97;}
</style>
<g>
	<path class="st0" d="M88,41.2l-36.4,0.1V5.6C51.6,2.5,49.1,0,46,0c-3.1,0-5.6,2.5-5.6,5.6l0.1,35.6H5.6c-3.1,0-5.6,2.5-5.6,5.6
		c0,3.1,2.5,5.6,5.6,5.6h34.8V88c0,3.1,2.5,5.6,5.6,5.6s5.6-2.5,5.6-5.6V52.4H88c3.1,0,5.6-2.5,5.6-5.6C93.6,43.7,91,41.2,88,41.2z"
		/>
</g>
</svg>
