<?xml version="1.0" encoding="utf-8"?>
<!-- Generator: Adobe Illustrator 22.0.1, SVG Export Plug-In . SVG Version: 6.00 Build 0)  -->
<svg version="1.1" id="Capa_1" xmlns="http://www.w3.org/2000/svg" xmlns:xlink="http://www.w3.org/1999/xlink" x="0px" y="0px"
	 viewBox="0 0 477.9 477.9" style="enable-background:new 0 0 477.9 477.9;" xml:space="preserve">
<style type="text/css">
	.st0{fill:#1D2948;}
</style>
<g>
	<g>
		<path class="st0" d="M341.3,85.3H51.2C22.9,85.3,0,108.3,0,136.5v290.1c0,28.3,22.9,51.2,51.2,51.2h290.1
			c28.3,0,51.2-22.9,51.2-51.2V136.5C392.5,108.3,369.6,85.3,341.3,85.3z M358.4,426.7c0,9.4-7.6,17.1-17.1,17.1H51.2
			c-9.4,0-17.1-7.6-17.1-17.1V136.5c0-9.4,7.6-17.1,17.1-17.1h290.1c9.4,0,17.1,7.6,17.1,17.1V426.7z"/>
	</g>
</g>
<g>
	<g>
		<path class="st0" d="M426.7,0H119.5C91.2,0,68.3,22.9,68.3,51.2c0,9.4,7.6,17.1,17.1,17.1s17.1-7.6,17.1-17.1s7.6-17.1,17.1-17.1
			h307.2c9.4,0,17.1,7.6,17.1,17.1v307.2c0,9.4-7.6,17.1-17.1,17.1s-17.1,7.6-17.1,17.1s7.6,17.1,17.1,17.1
			c28.3,0,51.2-22.9,51.2-51.2V51.2C477.9,22.9,454.9,0,426.7,0z"/>
	</g>
</g>
</svg>
