<?xml version="1.0" encoding="utf-8"?>
<!-- Generator: Adobe Illustrator 25.4.1, SVG Export Plug-In . SVG Version: 6.00 Build 0)  -->
<svg version="1.1" id="Layer_1" xmlns="http://www.w3.org/2000/svg" xmlns:xlink="http://www.w3.org/1999/xlink" x="0px" y="0px"
	 viewBox="0 0 1024 1024" style="enable-background:new 0 0 1024 1024;" xml:space="preserve">
<style type="text/css">
	.st0{fill:#1D2948;}
</style>
<g id="icon">
	<path class="st0" d="M306.9,352.9c0,0,56.3-10.8,117.7,14.6c23.4,9.2,85.1,50.9,137.7,103.5s94.3,112.2,103.5,137.7
		c23.4,61.8,14.6,117.7,14.6,117.7C863.6,605,820.2,478.1,820.2,478.1c194-192.3,175.7-380.5,166.9-426l-5.4-5.4
		c-45.5-7.1-233.7-27.1-426,166.9C553.5,213.1,428.3,169.7,306.9,352.9z M767.5,189.7c45.5,0,81.8,36.3,81.8,81.8
		s-36.3,81.8-81.8,81.8s-81.8-36.3-81.8-81.8S722,189.7,767.5,189.7z"/>
	<path class="st0" d="M1012,512.3c0-43.4-5.4-87.2-16.3-126.8c-21.7,38-50.9,75.9-85.1,116v10.8c0,204.9-156,375.1-355.5,397.2
		l-1.7,1.7v-1.7c-14.6,1.7-27.1,1.7-41.7,1.7c-23.4,0-45.5-1.7-68.8-5.4l174-174c-1.7-17.9-5.4-40.1-14.6-63.4
		c-3.8-9.2-12.5-23.4-23.4-41.7L337.7,867.8l-1.7,1.7c-23.4-12.5-47.1-25.5-68.8-43.4l257.4-257.4c1.7-1.7,3.8-3.8,5.4-7.1
		c-9.2-10.8-20-21.7-30.9-32.5c-12.5-12.5-27.1-25.5-40.1-36.3l-5.4,5.4l-257.3,259c-16.3-21.7-30.9-43.4-43.4-68.8l1.7-1.7
		l239.5-239.5c-14.6-9.2-25.5-16.3-32.5-17.9c-27.1-10.8-54.2-14.6-75.9-16.3L117,581.5c-3.8-21.7-5.4-45.5-5.4-68.8
		c0-221.1,179.4-398.9,398.9-398.9h23.4c38-34.6,78-61.8,114.3-81.8c-45.5-12.5-90.5-20-139.8-20c-272,0-496.9,224.9-496.9,500.3
		c0,116,40.1,226.6,112.2,317.1l-88.9,88.9c-20,20-20,52.6,0,70.5c20,20,52.6,20,70.5,0l88.9-88.9
		c88.9,72.6,199.4,112.2,317.1,112.2C789.2,1012.5,1012,788.1,1012,512.3z"/>
</g>
</svg>
