<svg width="26" height="26" viewBox="0 0 26 26" fill="none" xmlns="http://www.w3.org/2000/svg">
<path d="M13 0C5.8318 0 0 5.83188 0 13.0001C0 20.1683 5.8318 26 13 26C20.1682 26 26 20.1683 26 13.0001C26 5.83188 20.1682 0 13 0ZM13 23.6364C7.13503 23.6364 2.36364 18.865 2.36364 13.0001C2.36364 7.13519 7.13503 2.36364 13 2.36364C18.865 2.36364 23.6364 7.13519 23.6364 13.0001C23.6364 18.865 18.8649 23.6364 13 23.6364Z" fill="white"/>
<path d="M12.9998 5.51514C12.131 5.51514 11.4243 6.22234 11.4243 7.0916C11.4243 7.96008 12.131 8.66665 12.9998 8.66665C13.8685 8.66665 14.5752 7.96008 14.5752 7.0916C14.5752 6.22234 13.8685 5.51514 12.9998 5.51514Z" fill="white"/>
<path d="M12.9998 11.0303C12.3471 11.0303 11.818 11.5594 11.818 12.2121V19.303C11.818 19.9557 12.3471 20.4848 12.9998 20.4848C13.6525 20.4848 14.1816 19.9557 14.1816 19.303V12.2121C14.1816 11.5594 13.6525 11.0303 12.9998 11.0303Z" fill="white"/>
</svg>
