<?xml version="1.0" encoding="utf-8"?>
<!-- Generator: Adobe Illustrator 25.3.1, SVG Export Plug-In . SVG Version: 6.00 Build 0)  -->
<svg version="1.1" id="Capa_1" xmlns="http://www.w3.org/2000/svg" xmlns:xlink="http://www.w3.org/1999/xlink" x="0px" y="0px"
	 viewBox="0 0 1920 241.1" style="enable-background:new 0 0 1920 241.1;" xml:space="preserve">
<style type="text/css">
	.st0{fill:#01CF9E;}
</style>
<g id="icon">
	<path class="st0" d="M70.8,82.5c0,0,13.5-2.6,28.2,3.5c5.6,2.2,20.4,12.2,33,24.8s22.6,26.9,24.8,33c5.6,14.8,3.5,28.2,3.5,28.2
		c43.9-29.1,33.5-59.5,33.5-59.5c46.5-46.1,42.1-91.2,40-102.1l-1.3-1.3c-10.9-1.7-56-6.5-102.1,40C129.9,49,99.9,38.6,70.8,82.5z
		 M181.2,43.4c10.9,0,19.6,8.7,19.6,19.6s-8.7,19.6-19.6,19.6s-19.6-8.7-19.6-19.6S170.3,43.4,181.2,43.4z"/>
	<path class="st0" d="M239.8,120.7c0-10.4-1.3-20.9-3.9-30.4c-5.2,9.1-12.2,18.2-20.4,27.8v2.6c0,49.1-37.4,89.9-85.2,95.2l-0.4,0.4
		v-0.4c-3.5,0.4-6.5,0.4-10,0.4c-5.6,0-10.9-0.4-16.5-1.3l41.7-41.7c-0.4-4.3-1.3-9.6-3.5-15.2c-0.9-2.2-3-5.6-5.6-10l-57.8,57.8
		l-0.4,0.4c-5.6-3-11.3-6.1-16.5-10.4l61.7-61.7c0.4-0.4,0.9-0.9,1.3-1.7c-2.2-2.6-4.8-5.2-7.4-7.8c-3-3-6.5-6.1-9.6-8.7l-1.3,1.3
		l-61.7,62.1c-3.9-5.2-7.4-10.4-10.4-16.5l0.4-0.4l57.4-57.4c-3.5-2.2-6.1-3.9-7.8-4.3c-6.5-2.6-13-3.5-18.2-3.9l-40.4,40.4
		c-0.9-5.2-1.3-10.9-1.3-16.5c0-53,43-95.6,95.6-95.6h5.6c9.1-8.3,18.7-14.8,27.4-19.6c-10.9-3-21.7-4.8-33.5-4.8
		C53.9,0.8,0,54.7,0,120.7c0,27.8,9.6,54.3,26.9,76L5.6,218c-4.8,4.8-4.8,12.6,0,16.9c4.8,4.8,12.6,4.8,16.9,0l21.3-21.3
		c21.3,17.4,47.8,26.9,76,26.9C186.4,240.6,239.8,186.8,239.8,120.7z"/>
</g>
<g id="text">
	<path class="st0" d="M387.1,113.3l-29.5-6.1c-7-1.3-11.3-3.5-13.9-6.1c-2.6-2.6-3.9-5.6-3.9-9.1c0-3.5,0.9-6.1,3-8.7
		c2.2-2.6,5.2-4.3,9.1-5.6s8.7-2.2,14.3-2.2c7,0,13.5,1.7,20,5.2c6.5,3.5,11.3,8.7,14.8,15.6l19.1-16.1
		c-4.8-8.7-11.7-15.2-21.3-19.6c-9.1-4.8-20.4-7-33.5-7c-11.3,0-20.9,1.7-29.1,5.6C328,63.4,322,68.1,318,74.2
		c-4.3,6.1-6.1,12.6-6.1,20c0,9.6,3,17.4,8.7,23.5c6.1,6.1,15.6,10.9,29.5,13.5l27.4,5.6c6.1,1.3,10,3.5,12.2,5.6
		c2.2,2.6,3.5,5.6,3.5,8.7c0,5.2-2.2,9.1-7,11.7c-4.8,2.6-10.9,4.3-19.1,4.3c-10,0-18.7-2.2-26.1-6.5c-7.4-4.3-12.6-10-16.5-16.9
		l-19.1,16.5c6.1,9.1,14.8,16.5,25.6,21.3c10.9,5.2,22.6,7.4,35.6,7.4c11.3,0,20.9-1.7,29.1-5.2c8.3-3.5,14.3-8.3,18.7-14.8
		c4.3-6.5,6.5-13.5,6.5-22.2c0-8.7-2.6-15.2-7.8-21.3C408.4,119.9,399.7,115.9,387.1,113.3z M554.8,61.6c-8.7-5.2-18.2-8.3-29.1-8.3
		c-7.8,0-15.2,1.3-21.7,4.3c-6.5,3-12.2,7-16.5,12.2c-2.6,3-4.8,7-6.5,10.4l-1.3-24.8h-24.8v185.1h27.8v-76
		c3.5,6.1,7.8,11.3,13.5,15.6c7.8,5.6,17.4,8.7,28.2,8.7s20.4-2.6,29.5-8.3c8.7-5.2,15.6-13,20.9-23.5c5.2-10,7.8-22.2,7.8-36.5
		s-2.6-26.5-7.4-36.5C570,74.7,563.1,66.8,554.8,61.6L554.8,61.6z M545.3,154.2c-6.5,7.8-15.2,12.2-26.5,12.2
		c-7.4,0-13.5-1.7-19.1-5.6c-5.2-3.5-9.6-8.7-12.6-15.6c-3-7-4.3-14.8-4.3-23.9c0-9.6,1.3-17.4,4.3-23.9c3-6.5,7.4-11.7,12.6-15.6
		c5.6-3.9,11.7-5.6,19.1-5.6c11.3,0,20,3.9,26.1,12.2s9.6,19.1,9.6,33S551.8,146.4,545.3,154.2z M721.2,158.1V99.9
		c0-10.4-2.2-19.1-7-26.1c-4.8-7-10.9-11.7-18.7-15.2c-7.8-3.5-17.4-5.2-27.8-5.2c-15.2,0-27.8,3-37.4,9.6
		c-9.6,6.5-16.1,14.8-19.6,25.6l23.5,10c2.6-8.3,6.5-13.9,12.2-17.8c5.6-3.9,12.2-5.6,20-5.6c8.3,0,14.8,2.2,19.6,7
		c4.8,4.8,7.4,11.7,7.4,20.4v4.8l-46.1,9.6c-11.7,2.2-20.9,6.5-26.9,12.6c-6.5,6.1-9.6,14.3-9.6,23.9c0,7.8,1.7,14.3,5.6,19.6
		c3.9,5.2,8.7,9.1,15.2,11.7c6.5,2.6,13.9,3.9,22.2,3.9c6.5,0,13-1.3,19.6-3.5c6.5-2.2,12.2-5.6,16.9-10c1.7-1.7,3.5-3.9,4.8-6.1
		c0.4,2.2,1.3,4.3,2.6,6.5c2.6,3.9,6.1,7,10.4,9.1c4.3,2.2,9.6,3,15.2,3c6.1,0,11.3-0.9,15.2-3l1.7-19.1c-3,0.9-6.1,1.3-9.1,1.3
		C724.3,167.6,721.2,164.2,721.2,158.1z M690.8,151.6c-1.7,3.9-4.3,7-7.8,9.1c-3.5,2.2-7,3.9-10.9,5.2c-3.9,0.9-8.3,1.7-12.6,1.7
		c-6.1,0-11.3-1.3-15.2-4.3c-3.9-3-5.6-6.5-5.6-11.7s1.7-8.7,5.6-11.3c3.5-2.6,9.1-4.8,16.5-6.1l33-7v10.9
		C693.4,143.3,692.6,147.7,690.8,151.6L690.8,151.6z M849.4,155c-3,3.9-6.5,6.5-10.9,8.7c-4.3,2.2-9.6,3-15.2,3
		c-7.8,0-14.3-1.7-20-5.2c-5.6-3.5-10-8.7-12.6-15.2c-3-7-4.3-15.2-4.3-24.8c0-10,1.3-18.2,4.3-25.2c3-7,7-11.7,12.6-15.6
		c5.6-3.5,12.2-5.2,20-5.2c7.8,0,14.3,2.2,19.6,6.5c4.8,4.3,8.7,10.4,10.9,18.2l26.5-10.4c-2.6-7-6.5-13.5-11.3-19.1
		c-5.2-5.6-11.3-10-18.7-13s-16.5-4.3-26.5-4.3c-12.6,0-23.9,2.6-33.5,8.3c-10,5.2-17.4,13-23,23.5c-5.6,10-8.3,22.2-8.3,36.5
		s2.6,26.1,8.3,36.5c5.6,10.4,13,17.8,23,23.5c10,5.2,21.3,8.3,34.3,8.3c10,0,18.7-1.7,26.5-4.8c7.8-3,13.9-7.8,19.1-13.5
		c5.2-5.6,8.7-12.6,11.3-20.4l-25.2-8.7C854.2,146.8,852,151.6,849.4,155L849.4,155z M1001.1,61.2c-8.7-5.2-19.6-7.8-32.2-7.8
		c-12.2,0-23.5,2.6-33,8.3c-9.6,5.2-17.4,13-22.6,23.5c-5.6,10-8.3,22.2-8.3,36.5s2.6,26.1,8.3,36.5c5.6,10.4,13,17.8,23,23.5
		c10,5.2,21.3,8.3,34.3,8.3c8.7,0,16.5-1.3,23.9-3.5c7.4-2.6,13.5-6.1,18.7-10.4c5.2-4.8,9.6-10,12.6-16.5l-22.2-10.4
		c-3,6.1-7.4,10.4-12.6,13.9c-5.2,3.5-12.6,4.8-21.3,4.8c-7.8,0-14.8-1.7-20.4-5.2c-5.6-3.5-10-8.7-13.5-15.2
		c-2.2-4.8-3.5-10.4-4.3-16.5h95.6c0.4-2.2,0.4-4.3,0.9-7.4c0-2.6,0.4-5.6,0.4-8.7c0-11.3-2.2-21.7-7-30.8
		C1016.7,73.4,1010.2,66.4,1001.1,61.2z M935.9,96.4c3-7,7.4-12.2,12.6-15.6c5.6-3.5,12.2-5.2,19.6-5.2c10.4,0,18.2,3,24.3,9.6
		c5.2,5.6,8.3,13.5,8.7,23h-68.6C933.3,103.8,934.6,99.9,935.9,96.4z M1167,58.6c-6.5-3.5-14.8-5.2-23.5-5.2
		c-9.6,0-17.8,2.2-24.8,6.5c-7,4.3-12.6,10.9-16.5,19.6V0.8H1058v185.5h44.3v-68.6c0-7.4,0.9-13,3-17.8c2.2-4.3,4.8-7.8,8.7-10
		c3.5-2.2,7.4-3,11.7-3c5.6,0,10,1.7,13.5,5.2c3.5,3.5,5.2,10,5.2,19.6v74.7h44.3V99.4c0-10.4-1.7-18.7-5.6-25.6
		C1179.2,67.3,1174,62.1,1167,58.6L1167,58.6z M1304.8,125.9c0,5.2-0.4,9.6-1.7,13c-1.3,3.9-2.6,7-4.8,9.1c-2.2,2.2-4.3,3.9-7.4,5.2
		c-2.6,1.3-5.6,1.7-8.7,1.7c-6.1,0-10.9-1.7-13.9-4.8c-3.5-3.5-4.8-9.1-4.8-17.4V56h-44.3v86.9c0,10.9,1.7,20,5.6,26.5
		c3.9,7,9.1,11.7,15.6,14.8c6.5,3,14.3,4.8,23.5,4.8c10.4,0,19.6-2.2,26.9-6.5c7.4-4.3,13.5-11.3,17.4-20.4l1.3,24.3h39.5V56h-44.3
		L1304.8,125.9L1304.8,125.9z M1468.1,78.6c-2.6-5.2-5.6-10.4-9.6-14.3c-7.4-7.4-16.5-10.9-28.7-10.9c-10.9,0-20.4,2.6-28.7,8.3
		c-8.3,5.2-14.8,13-19.1,23c-4.8,10-7,22.6-7,36.9c0,13.9,2.2,26.1,6.5,36.1c4.3,10,10.9,17.8,18.7,23c8.3,5.2,17.4,7.8,28.2,7.8
		c8.3,0,15.6-1.7,22.2-5.2c6.5-3.5,11.7-8.7,16.1-15.2c1.7-2.2,3-4.8,3.9-7.4l2.2,25.6h39.5V0.8h-44.3L1468.1,78.6L1468.1,78.6z
		 M1465.5,140.3c-1.7,5.2-4.8,9.6-8.3,12.2s-7.8,3.9-13,3.9c-7.8,0-13.5-3-17.8-8.7c-4.3-5.6-6.5-14.3-6.5-26.9
		c0-12.2,2.2-20.9,6.5-26.5c4.3-5.6,10.4-8.7,18.2-8.7c5.2,0,9.1,1.3,13,3.9c3.5,2.6,6.1,6.5,8.3,11.7c1.7,5.2,2.6,11.3,2.6,18.7
		C1468.1,128.1,1467.3,134.6,1465.5,140.3z M1631.9,78.6c-2.6-5.2-5.6-10.4-9.6-14.3c-7.4-7.4-16.5-10.9-28.7-10.9
		c-10.9,0-20.4,2.6-28.7,8.3c-8.3,5.2-14.8,13-19.1,23c-4.8,10-7,22.6-7,36.9c0,13.9,2.2,26.1,6.5,36.1s10.9,17.8,18.7,23
		c8.3,5.2,17.4,7.8,28.2,7.8c8.3,0,15.6-1.7,22.2-5.2s11.7-8.7,16.1-15.2c1.7-2.2,3-4.8,3.9-7.4l1.7,25.2h39.5V0.8h-44.3v77.8
		L1631.9,78.6z M1628.9,140.3c-1.7,5.2-4.8,9.6-8.3,12.2s-7.8,3.9-13,3.9c-7.8,0-13.5-3-17.8-8.7c-4.3-5.6-6.5-14.3-6.5-26.9
		c0-12.2,2.2-20.9,6.5-26.5c4.3-5.6,10.4-8.7,18.2-8.7c5.2,0,9.1,1.3,13,3.9c3.5,2.6,6.1,6.5,8.3,11.7c1.7,5.2,2.6,11.3,2.6,18.7
		C1631.9,128.1,1630.6,134.6,1628.9,140.3z M1764,158.1c-4.3,0-7.8-1.3-9.6-3.5c-1.7-2.6-3-6.5-3-12.2V0.8h-43.9v146.9
		c0,14.8,3,25.2,9.6,31.7c6.1,6.5,16.5,9.6,30.4,9.6c4.8,0,10-0.4,14.8-1.7c5.2-1.3,9.1-2.6,12.2-4.8l2.6-26.5
		c-2.6,0.9-4.3,1.3-6.1,1.7C1768.8,157.7,1766.6,158.1,1764,158.1z M1911.7,83.4c-5.2-9.1-12.6-16.5-22.2-21.7
		c-9.6-5.2-21.3-7.8-34.8-7.8s-25.2,2.6-35.6,8.3c-10.4,5.2-18.2,13-23.9,23c-5.6,10-8.7,22.2-8.7,36.5s2.6,26.5,8.7,36.5
		c5.6,10,13.9,17.8,24.3,23c10.4,5.2,23,8.3,36.9,8.3c9.6,0,18.2-1.3,26.5-3.9c8.3-2.6,15.2-6.5,21.3-11.7s10-11.3,12.6-18.7
		l-35.6-12.2c-1.7,4.8-4.8,8.3-8.7,10.9s-9.1,3.9-15.6,3.9c-6.1,0-10.9-1.3-15.2-3.5c-4.3-2.6-7.4-6.1-9.6-11.3
		c-1.3-3-2.2-6.1-2.6-10h89.1c0.4-2.2,0.4-4.8,0.9-7.8c0-3,0.4-6.1,0.4-9.6C1919.1,103.3,1917,92.5,1911.7,83.4z M1840.5,88.1
		c3.9-2.6,8.7-3.9,14.3-3.9c7.8,0,13.5,2.6,17.4,8.3c2.6,3.9,4.3,9.1,5.2,15.6h-47.4c0.4-3,1.3-5.6,2.2-7.8
		C1833.5,95.1,1836.6,90.7,1840.5,88.1z"/>
</g>
</svg>
