<?xml version="1.0" encoding="utf-8"?>
<!-- Generator: Adobe Illustrator 26.0.0, SVG Export Plug-In . SVG Version: 6.00 Build 0)  -->
<svg version="1.1" id="Layer_1" focusable="false" xmlns="http://www.w3.org/2000/svg" xmlns:xlink="http://www.w3.org/1999/xlink"
	 x="0px" y="0px" viewBox="0 0 576 512" style="enable-background:new 0 0 576 512;" xml:space="preserve">
<path d="M528,0H48C21.5,0,0,21.5,0,48v320c0,26.5,21.5,48,48,48h192l-16,48h-72c-13.3,0-24,10.7-24,24s10.7,24,24,24h272
	c13.3,0,24-10.7,24-24s-10.7-24-24-24h-72l-16-48h192c26.5,0,48-21.5,48-48V48C576,21.5,554.5,0,528,0z"/>
</svg>
