<?xml version="1.0" encoding="utf-8"?>
<!-- Generator: Adobe Illustrator 22.0.1, SVG Export Plug-In . SVG Version: 6.00 Build 0)  -->
<svg version="1.1" id="Capa_1" xmlns="http://www.w3.org/2000/svg" xmlns:xlink="http://www.w3.org/1999/xlink" x="0px" y="0px"
	 viewBox="0 0 497 519" style="enable-background:new 0 0 497 519;" xml:space="preserve">
<style type="text/css">
	.st0{fill:#1D2948;}
</style>
<g>
	<g>
		<path class="st0" d="M395.7,335.5c-29.6,0-56,14.4-72.4,36.6L182,299.9c2.4-8.1,3.6-16.6,3.6-25.4c0-11.9-2.3-23.3-6.6-33.8
			l148.1-89c16.5,19.4,41.1,31.7,68.5,31.7c49.6,0,90-40.4,90-90s-40.4-90-90-90s-90,40.4-90,90c0,11.5,2.2,22.4,6.1,32.5
			l-148.4,89.2c-16.5-18.8-40.7-30.7-67.7-30.7c-49.6,0-90,40.4-90,90s40.4,90,90,90c30.1,0,56.8-14.9,73.2-37.7l140.9,72
			c-2.6,8.4-4,17.4-4,26.7c0,49.6,40.4,90,90,90s90-40.4,90-90S445.3,335.5,395.7,335.5z M395.7,33.5c33.1,0,60,26.9,60,60
			s-26.9,60-60,60s-60-26.9-60-60S362.6,33.5,395.7,33.5z M95.7,334.5c-33.1,0-60-26.9-60-60s26.9-60,60-60s60,26.9,60,60
			S128.7,334.5,95.7,334.5z M395.7,485.5c-33.1,0-60-26.9-60-60s26.9-60,60-60s60,26.9,60,60S428.7,485.5,395.7,485.5z"/>
	</g>
</g>
</svg>
