<?xml version="1.0" encoding="iso-8859-1"?>
<!-- Generator: Adobe Illustrator 19.0.0, SVG Export Plug-In . SVG Version: 6.00 Build 0)  -->
<svg xmlns="http://www.w3.org/2000/svg" xmlns:xlink="http://www.w3.org/1999/xlink" version="1.1" id="Layer_1" x="0px" y="0px" viewBox="0 0 512 512" style="enable-background:new 0 0 512 512;" xml:space="preserve">
<path style="fill:#FF5050;" d="M307.306,255.938l37.375,67.275c3.528,6.351,5.381,13.498,5.381,20.764v48.779l-51.307-51.307  L307.306,255.938z"/>
<path style="fill:#FFF082;" d="M230.346,389.446c0,0,0,65.706,21.728,112.014c1.579,3.365,6.271,3.365,7.85,0  c21.728-46.308,21.728-112.014,21.728-112.014H230.346z"/>
<path style="fill:#FFFFFF;" d="M259.306,444.974c6.832-17.283,11.111-37.265,13.795-55.528h-34.205  c2.684,18.263,6.963,38.245,13.795,55.528C254.023,448.339,257.975,448.339,259.306,444.974z"/>
<path style="fill:#FF5050;" d="M204.692,255.938l-37.375,67.275c-3.528,6.351-5.381,13.498-5.381,20.764v48.779l51.307-51.307  L204.692,255.938z"/>
<g>
	<path style="fill:#C84146;" d="M325.752,289.141l-18.446-33.203l-8.551,85.512l18.212,18.212   C318.955,344.169,322.228,318.335,325.752,289.141z"/>
	<path style="fill:#C84146;" d="M195.031,359.661l18.212-18.212l-8.551-85.511l-18.446,33.203   C189.77,318.335,193.043,344.169,195.031,359.661z"/>
</g>
<polygon style="fill:#959CB5;" points="281.649,358.614 230.346,358.614 221.794,401.37 290.204,401.37 "/>
<path style="fill:#E4EAF8;" d="M261.504,12.507c-3.174-2.715-7.837-2.715-11.011,0c-16.253,13.904-62.903,58.734-62.903,115.226  c0,37.79,20.041,195.821,24.696,232.022c0.548,4.266,4.174,7.411,8.475,7.411h70.477c4.301,0,7.927-3.145,8.475-7.411  c4.654-36.2,24.695-194.232,24.695-232.022C324.408,71.241,277.757,26.411,261.504,12.507z"/>
<path style="fill:#D5DCED;" d="M304.186,324.409h-60.224c-1.881-60.724-5.064-167.984-5.064-198.324  c0-56.071,11.32-100.668,15.533-115.339c-1.408,0.268-2.78,0.771-3.937,1.759c-16.254,13.905-62.904,58.735-62.904,115.227  c0,37.79,20.041,195.821,24.696,232.022c0.548,4.266,4.174,7.411,8.475,7.411h26.429c-1.075,0-1.982-3.167-2.119-7.462  c-0.14-4.405-0.339-10.633-0.576-18.191h57.544C302.685,336.397,303.409,330.634,304.186,324.409z"/>
<path style="fill:#FF5050;" d="M261.504,12.507c-3.174-2.715-7.836-2.715-11.01,0c-16.254,13.905-62.904,58.734-62.904,115.226  c0,7.391,0.774,19.424,2.043,34.205h132.734c1.269-14.781,2.043-26.813,2.043-34.205C324.408,71.241,277.757,26.412,261.504,12.507z  "/>
<circle style="fill:#464655;" cx="255.999" cy="110.63" r="25.653"/>
<path style="fill:#C84146;" d="M247.659,153.386c-4.666,0-8.472-3.788-8.552-8.453c-0.134-7.775-0.211-14.239-0.211-18.848  c0-56.071,11.32-100.668,15.533-115.339c-1.408,0.268-2.78,0.771-3.937,1.759c-16.253,13.905-62.903,58.735-62.903,115.227  c0,5.893,0.507,14.821,1.349,25.653c0,0,0.896,11.016,1.455,17.102h131.211c0.558-6.086,1.058-11.851,1.467-17.102H247.659z"/>
<path style="fill:#5B5D6E;" d="M268.826,123.457c-14.168,0-25.653-11.485-25.653-25.653c0-3.759,0.853-7.304,2.307-10.52  c-8.908,4.022-15.133,12.938-15.133,23.347c0,14.168,11.485,25.653,25.653,25.653c10.409,0,19.325-6.225,23.347-15.133  C276.129,122.604,272.585,123.457,268.826,123.457z"/>
<path d="M255.999,144.301c18.566,0,33.67-15.105,33.67-33.67s-15.105-33.67-33.67-33.67s-33.67,15.105-33.67,33.67  S237.433,144.301,255.999,144.301z M255.999,92.994c9.725,0,17.637,7.912,17.637,17.637s-7.912,17.637-17.637,17.637  c-9.725,0-17.637-7.912-17.637-17.637S246.274,92.994,255.999,92.994z"/>
<path d="M351.68,319.374l-31.852-57.281c6.395-54.485,12.597-112.861,12.597-134.36c0-29.811-12.436-61.112-35.962-90.52  c-17.536-21.92-34.922-35.06-35.654-35.609c-2.851-2.138-6.769-2.138-9.62,0c-0.732,0.549-18.118,13.689-35.654,35.609  c-23.526,29.408-35.962,60.709-35.962,90.52c0,21.499,6.202,79.875,12.597,134.36l-31.852,57.281  c-4.187,7.528-6.398,16.06-6.398,24.674v48.77c0,3.242,1.953,6.166,4.949,7.406c0.992,0.41,2.033,0.61,3.067,0.61  c2.086,0,4.137-0.814,5.67-2.348l36.876-36.876c1.374,7.57,7.873,13.241,15.602,13.557l-6.064,24.256  c-0.6,2.395-0.061,4.932,1.458,6.878c1.519,1.946,3.85,3.084,6.319,3.084h0.788c0.946,18.204,5.42,63.517,26.543,98.721  c1.448,2.415,4.059,3.893,6.874,3.893c2.815,0,5.426-1.477,6.874-3.893c14.106-23.51,20.654-51.757,23.662-71.311  c0.673-4.376-2.328-8.469-6.704-9.142c-4.373-0.67-8.469,2.329-9.142,6.704c-2.233,14.511-6.525,34.114-14.692,52.271  c-13.051-28.993-16.445-62.279-17.327-77.243h51.531c2.469,0,4.799-1.137,6.319-3.084c1.52-1.946,2.058-4.483,1.458-6.878  l-6.066-24.256c7.728-0.314,14.229-5.987,15.604-13.557l36.876,36.876c1.534,1.534,3.584,2.348,5.67,2.348  c1.033,0,2.075-0.2,3.067-0.61c2.996-1.241,4.949-4.164,4.949-7.406v-48.77C358.078,335.434,355.866,326.902,351.68,319.374z   M255.999,18.372c15.084,12.92,60.392,56.162,60.392,109.361c0,7.409-0.8,19.643-2.112,34.739h-15.528  c-4.427,0-8.017,3.589-8.017,8.017s3.589,8.017,8.017,8.017h14.05c-4.384,45.337-11.824,106.858-16.765,146.438h-80.078  c-4.94-39.58-12.38-101.101-16.765-146.438h65.353c4.427,0,8.017-3.589,8.017-8.017s-3.589-8.017-8.017-8.017h-66.83  c-1.312-15.096-2.112-27.331-2.112-34.739C195.606,74.531,240.921,31.287,255.999,18.372z M169.953,344.048  c0-5.894,1.515-11.732,4.378-16.882l21.078-37.906c2.386,19.725,4.652,37.887,6.472,52.277l-31.928,31.928V344.048z   M291.761,358.731c-0.036,0.289-0.29,0.417-0.524,0.417h-9.588c-2.469,0-4.799,1.137-6.319,3.084s-2.058,4.483-1.458,6.878  l6.064,24.242h-47.874l4.543-18.171h10.843c4.427,0,8.017-3.589,8.017-8.017c0-4.427-3.589-8.017-8.017-8.017h-26.687  c-0.234,0-0.487-0.128-0.524-0.417c-0.518-4.03-1.298-10.12-2.263-17.754h76.05C293.059,348.612,292.279,354.702,291.761,358.731z   M342.045,373.465l-31.928-31.928c1.82-14.389,4.086-32.552,6.472-52.277l21.077,37.906c2.864,5.15,4.378,10.988,4.378,16.882  V373.465z"/>
<g>
</g>
<g>
</g>
<g>
</g>
<g>
</g>
<g>
</g>
<g>
</g>
<g>
</g>
<g>
</g>
<g>
</g>
<g>
</g>
<g>
</g>
<g>
</g>
<g>
</g>
<g>
</g>
<g>
</g>
</svg>
