<svg width="25" height="27" viewBox="0 0 25 27" fill="none" xmlns="http://www.w3.org/2000/svg">
<path d="M20.7156 6.69376H19.1824H19.1823H16.7145L16.4625 5.57464C16.1603 4.23218 15.0734 3.29065 13.8267 3.29065H10.7387C9.49195 3.29065 8.405 4.23218 8.10285 5.57471L7.85087 6.69376H5.3831H5.38306C5.38306 6.69376 5.38306 6.69376 5.38302 6.69376H3.84975C3.42636 6.69376 3.08314 7.07469 3.08314 7.54456C3.08314 8.01443 3.42636 8.39533 3.84975 8.39533H4.65788L5.30379 21.2978C5.37163 22.6506 6.38002 23.7094 7.60094 23.7094H16.9645C18.1854 23.7094 19.1938 22.6506 19.2617 21.2979L19.9076 8.39533H20.7156C21.139 8.39533 21.4822 8.01443 21.4822 7.54456C21.4822 7.07469 21.139 6.69376 20.7156 6.69376ZM9.59041 5.98712C9.72205 5.40231 10.1955 4.99218 10.7387 4.99218H13.8267C14.3699 4.99218 14.8434 5.40231 14.9749 5.98704L15.1341 6.69376H9.43129L9.59041 5.98712ZM17.7308 21.2034C17.7082 21.6545 17.3717 22.0078 16.9645 22.0078H7.60094C7.19379 22.0078 6.85729 21.6545 6.83465 21.2033L6.19352 8.39533H8.44956H16.1158H18.372L17.7308 21.2034Z" fill="#1D2948"/>
<path d="M9.21618 10.0969C8.79278 10.0969 8.44956 10.4778 8.44956 10.9477V19.4554C8.44956 19.9253 8.79278 20.3062 9.21618 20.3062C9.63957 20.3062 9.9828 19.9253 9.9828 19.4554V10.9477C9.9828 10.4778 9.63957 10.0969 9.21618 10.0969Z" fill="#1D2948"/>
<path d="M12.2827 10.0969C11.8593 10.0969 11.5161 10.4778 11.5161 10.9477V19.4554C11.5161 19.9253 11.8593 20.3062 12.2827 20.3062C12.7061 20.3062 13.0493 19.9253 13.0493 19.4554V10.9477C13.0493 10.4778 12.7061 10.0969 12.2827 10.0969Z" fill="#1D2948"/>
<path d="M15.3492 10.0969C14.9258 10.0969 14.5826 10.4778 14.5826 10.9477V19.4554C14.5826 19.9253 14.9258 20.3062 15.3492 20.3062C15.7726 20.3062 16.1158 19.9253 16.1158 19.4554V10.9477C16.1158 10.4778 15.7726 10.0969 15.3492 10.0969Z" fill="#1D2948"/>
</svg>
