<svg width="11" height="11" viewBox="0 0 11 11" fill="none" xmlns="http://www.w3.org/2000/svg">
<g clip-path="url(#clip0_1804_18)">
<path d="M10.654 3.5793C10.7228 3.76621 10.6648 3.97461 10.5165 4.10781L9.58626 4.9543C9.60989 5.13262 9.62278 5.31523 9.62278 5.5C9.62278 5.68477 9.60989 5.86738 9.58626 6.0457L10.5165 6.89219C10.6648 7.02539 10.7228 7.23379 10.654 7.4207C10.5595 7.67637 10.4456 7.92129 10.3146 8.15762L10.2136 8.33164C10.0718 8.56797 9.91282 8.79141 9.7388 9.00195C9.61204 9.15664 9.40149 9.2082 9.21243 9.14805L8.01575 8.76777C7.72786 8.98906 7.40989 9.17383 7.07044 9.31348L6.80189 10.5402C6.75892 10.7357 6.60853 10.8904 6.41087 10.9227C6.11439 10.9721 5.80931 10.9979 5.49778 10.9979C5.18626 10.9979 4.88118 10.9721 4.5847 10.9227C4.38704 10.8904 4.23665 10.7357 4.19368 10.5402L3.92513 9.31348C3.58567 9.17383 3.26771 8.98906 2.97981 8.76777L1.78528 9.1502C1.59622 9.21035 1.38567 9.15664 1.25892 9.0041C1.08489 8.79355 0.925909 8.57012 0.784112 8.33379L0.683135 8.15977C0.552081 7.92344 0.438214 7.67852 0.343682 7.42285C0.274932 7.23594 0.33294 7.02754 0.481182 6.89434L1.41146 6.04785C1.38782 5.86738 1.37493 5.68477 1.37493 5.5C1.37493 5.31523 1.38782 5.13262 1.41146 4.9543L0.481182 4.10781C0.33294 3.97461 0.274932 3.76621 0.343682 3.5793C0.438214 3.32363 0.552081 3.07871 0.683135 2.84238L0.784112 2.66836C0.925909 2.43203 1.08489 2.20859 1.25892 1.99805C1.38567 1.84336 1.59622 1.7918 1.78528 1.85195L2.98196 2.23223C3.26985 2.01094 3.58782 1.82617 3.92728 1.68652L4.19583 0.459766C4.2388 0.264258 4.38919 0.10957 4.58685 0.0773437C4.88333 0.0257812 5.18841 0 5.49993 0C5.81146 0 6.11653 0.0257813 6.41302 0.0751953C6.61067 0.107422 6.76107 0.262109 6.80403 0.457617L7.07259 1.68438C7.41204 1.82402 7.73001 2.00879 8.0179 2.23008L9.21458 1.8498C9.40364 1.78965 9.61419 1.84336 9.74095 1.9959C9.91497 2.20645 10.074 2.42988 10.2158 2.66621L10.3167 2.84023C10.4478 3.07656 10.5617 3.32148 10.6562 3.57715L10.654 3.5793ZM5.49993 7.21875C5.95577 7.21875 6.39294 7.03767 6.71527 6.71534C7.0376 6.39301 7.21868 5.95584 7.21868 5.5C7.21868 5.04416 7.0376 4.60699 6.71527 4.28466C6.39294 3.96233 5.95577 3.78125 5.49993 3.78125C5.04409 3.78125 4.60692 3.96233 4.28459 4.28466C3.96226 4.60699 3.78118 5.04416 3.78118 5.5C3.78118 5.95584 3.96226 6.39301 4.28459 6.71534C4.60692 7.03767 5.04409 7.21875 5.49993 7.21875Z" fill="#263526"/>
</g>
<defs>
<clipPath id="clip0_1804_18">
<rect width="11" height="11" fill="white"/>
</clipPath>
</defs>
</svg>
