<svg width="13" height="13" viewBox="0 0 13 13" fill="none" xmlns="http://www.w3.org/2000/svg">
<path d="M1.01562 1.21875C0.67793 1.21875 0.40625 1.49043 0.40625 1.82812V3.04688C0.40625 3.38457 0.67793 3.65625 1.01562 3.65625H2.23438C2.57207 3.65625 2.84375 3.38457 2.84375 3.04688V1.82812C2.84375 1.49043 2.57207 1.21875 2.23438 1.21875H1.01562ZM4.875 1.625C4.42559 1.625 4.0625 1.98809 4.0625 2.4375C4.0625 2.88691 4.42559 3.25 4.875 3.25H12.1875C12.6369 3.25 13 2.88691 13 2.4375C13 1.98809 12.6369 1.625 12.1875 1.625H4.875ZM4.875 5.6875C4.42559 5.6875 4.0625 6.05059 4.0625 6.5C4.0625 6.94941 4.42559 7.3125 4.875 7.3125H12.1875C12.6369 7.3125 13 6.94941 13 6.5C13 6.05059 12.6369 5.6875 12.1875 5.6875H4.875ZM4.875 9.75C4.42559 9.75 4.0625 10.1131 4.0625 10.5625C4.0625 11.0119 4.42559 11.375 4.875 11.375H12.1875C12.6369 11.375 13 11.0119 13 10.5625C13 10.1131 12.6369 9.75 12.1875 9.75H4.875ZM0.40625 5.89062V7.10938C0.40625 7.44707 0.67793 7.71875 1.01562 7.71875H2.23438C2.57207 7.71875 2.84375 7.44707 2.84375 7.10938V5.89062C2.84375 5.55293 2.57207 5.28125 2.23438 5.28125H1.01562C0.67793 5.28125 0.40625 5.55293 0.40625 5.89062ZM1.01562 9.34375C0.67793 9.34375 0.40625 9.61543 0.40625 9.95312V11.1719C0.40625 11.5096 0.67793 11.7812 1.01562 11.7812H2.23438C2.57207 11.7812 2.84375 11.5096 2.84375 11.1719V9.95312C2.84375 9.61543 2.57207 9.34375 2.23438 9.34375H1.01562Z" fill="#263526"/>
</svg>
