<svg width="17" height="14" viewBox="0 0 17 14" fill="none" xmlns="http://www.w3.org/2000/svg">
<path d="M11.0094 9V4H12.5294L12.6194 5.72L12.4294 5.53C12.4961 5.17 12.6127 4.87 12.7794 4.63C12.9527 4.39 13.1661 4.21 13.4194 4.09C13.6794 3.96333 13.9694 3.9 14.2894 3.9C14.6361 3.9 14.9361 3.96667 15.1894 4.1C15.4494 4.23333 15.6527 4.43 15.7994 4.69C15.9461 4.95 16.0194 5.27667 16.0194 5.67V9H14.3194V6.12C14.3194 5.77333 14.2527 5.53333 14.1194 5.4C13.9861 5.26667 13.8161 5.2 13.6094 5.2C13.4494 5.2 13.2994 5.24 13.1594 5.32C13.0194 5.39333 12.9094 5.51333 12.8294 5.68C12.7494 5.84667 12.7094 6.07 12.7094 6.35V9H11.0094Z" fill="#C75F44"/>
<path d="M7 13L4 10L1 13" stroke="#C75F44" stroke-width="2" stroke-linecap="round" stroke-linejoin="round"/>
</svg>
