<svg width="23" height="16" viewBox="0 0 23 16" fill="none" xmlns="http://www.w3.org/2000/svg">
<path d="M15.162 13V6H16.492L16.59 7.82L16.394 7.624C16.5247 7.22267 16.7113 6.89133 16.954 6.63C17.206 6.35933 17.5 6.16333 17.836 6.042C18.1813 5.92067 18.5453 5.86 18.928 5.86C19.4227 5.86 19.866 5.958 20.258 6.154C20.6593 6.34067 20.9767 6.62533 21.21 7.008C21.4433 7.39067 21.56 7.876 21.56 8.464V13H20.062V8.926C20.062 8.23533 19.9173 7.75933 19.628 7.498C19.348 7.22733 18.9933 7.092 18.564 7.092C18.256 7.092 17.9573 7.16667 17.668 7.316C17.3787 7.456 17.136 7.68467 16.94 8.002C16.7533 8.31933 16.66 8.744 16.66 9.276V13H15.162Z" fill="#263526"/>
<g clip-path="url(#clip0_1804_11)">
<path d="M5.5 7.5C6.33354 7.5 7.13294 7.15759 7.72234 6.5481C8.31174 5.9386 8.64286 5.11195 8.64286 4.25C8.64286 3.38805 8.31174 2.5614 7.72234 1.9519C7.13294 1.34241 6.33354 1 5.5 1C4.66646 1 3.86706 1.34241 3.27766 1.9519C2.68826 2.5614 2.35714 3.38805 2.35714 4.25C2.35714 5.11195 2.68826 5.9386 3.27766 6.5481C3.86706 7.15759 4.66646 7.5 5.5 7.5ZM4.3779 8.71875C1.95938 8.71875 0 10.7449 0 13.2459C0 13.6623 0.326563 14 0.729241 14H10.2708C10.6734 14 11 13.6623 11 13.2459C11 10.7449 9.04063 8.71875 6.6221 8.71875H4.3779Z" fill="#263526"/>
</g>
<defs>
<clipPath id="clip0_1804_11">
<rect width="11" height="13" fill="white" transform="translate(0 1)"/>
</clipPath>
</defs>
</svg>
