<?xml version="1.0" encoding="utf-8"?>
<!-- Generator: Adobe Illustrator 27.8.1, SVG Export Plug-In . SVG Version: 6.00 Build 0)  -->
<svg version="1.1" id="Capa_1" xmlns="http://www.w3.org/2000/svg" xmlns:xlink="http://www.w3.org/1999/xlink" x="0px" y="0px"
	 viewBox="0 0 1465.5 241.1" style="enable-background:new 0 0 1465.5 241.1;" xml:space="preserve">
<style type="text/css">
	.st0{fill:#01CF9E;}
</style>
<path class="st0" d="M1282.2,0c-1.4,0-2.5,0.9-2.8,2.4c-0.7,2.6-1.2,5.2-1.9,7.8c-0.2,0.7,0.1,1,0.8,1.1c0.9,0.1,1.8,0.4,2.7,0.5
	c0.9,0.2,2,0.7,2.6,0.4c0.6-0.4,0.6-1.6,0.8-2.5c0.5-2.1,0.9-4.2,1.3-5.9l0,0c0.1-2.2-0.9-3.3-2.9-3.7C1282.6,0,1282.4,0,1282.2,0
	L1282.2,0z M1255.9,4.2c-2.6,0-4.2,2.7-2.9,5c1.4,2.4,2.9,4.7,4.4,7c0.4,0.6,0.6,0.6,1.2,0.2c1.3-0.9,2.7-1.8,4.1-2.6
	c0.6-0.3,0.5-0.6,0.2-1.1c-1.5-2.4-3-4.8-4.5-7.1C1257.9,4.7,1257,4.2,1255.9,4.2L1255.9,4.2z M1274.8,14.7
	c-5.4,0-10.2,1.7-14.3,5.2c-6.3,5.4-9,12.2-8,20.4c0.3,2.6,0.2,2.2-1.9,2.2c-31.2,0-62.3,0-93.5,0c-0.9,0-1.9,0-2.8,0.2
	c-2.9,0.4-4.1,1.8-4.1,4.8c0,1.8,0,3.7,0,5.5v159c0,0.4,0.1,0.7,0,1.1c-0.1,0.4-0.2,0.9-0.5,1.2c-1.4,1.1-2.2,2.7-3,4.2
	c-0.4,0.8-0.9,1.2-1.7,1.5c-4.6,1.3-8.2,5.2-8.2,10.6c0,1.3,0.1,2.6,0.3,3.8c0.4,3.2,2.8,5.4,6,5.5c0.6,0,1.1,0,1.7,0h67.8l0,0
	c23,0,45.9-0.1,68.9,0.1c4.1,0,6.8-3,6.9-6.5c0-0.6,0.1-1.2,0.1-1.8c0.3-4.2-1.3-7.7-4.8-10c-1.7-1.1-2-2.1-2-3.9
	c0-51.5,0-103,0-154.5c0-1.1,0-2.3,0-3.4c0-0.7,0.3-1.1,1-1.4c0.9-0.3,1.7-0.6,2.5-1.1c8.1-4.3,13-13,12.2-22.1
	C1296.2,23.8,1286.3,14.7,1274.8,14.7L1274.8,14.7z M1305,15.7c-0.5,0-1,0.1-1.5,0.4c-2.5,1.4-4.9,3-7.3,4.6
	c-0.2,0.1-0.3,0.7-0.2,0.8c0.9,1.6,1.8,3.1,2.7,4.6c0.1,0.2,0.5,0.3,0.7,0.2c2.6-1.6,5.2-3.2,7.8-4.9c0.8-0.5,1.2-1.3,1.1-2.2
	C1308.3,17.2,1306.7,15.7,1305,15.7z M1239.7,26.3c-1.9,0-3.1,1.4-3.1,3.5c0,1.4,0.7,2.5,2.2,2.9c3,0.8,6,1.4,8.9,2.1
	c0.5,0.1,0.7-0.1,0.8-0.6c0.3-1.6,0.6-3.2,1.1-4.8c0.2-0.8-0.1-1-0.7-1.1c-2.8-0.6-5.6-1.4-8.4-1.9
	C1240.3,26.4,1240,26.3,1239.7,26.3z M1301.4,40.3c-0.3,0-0.5,0.2-0.6,0.7c-0.3,1.5-0.7,3.1-1.1,4.6c-0.2,0.8,0,1.1,0.7,1.3
	c2.6,0.5,5.2,1.2,7.8,1.7c2.2,0.5,3.9-0.9,4-3.2l0,0c0-1.6-0.8-2.7-2.6-3.1c-2.6-0.6-5.2-1.2-7.8-1.8
	C1301.7,40.3,1301.6,40.3,1301.4,40.3L1301.4,40.3z M1387.7,46.7c-7.5,0-15.1,0.7-22.5,2.2c-10.3,2.1-20.2,5.3-29.1,11.1
	c-10.2,6.7-17.7,15.6-22.1,27.1c-3.4,9-4.2,18.3-2.8,27.8c1.1,7.8,3.9,14.9,8.9,21.1c3.9,4.9,8.8,8.6,14.1,11.8
	c8.5,5.2,17.8,8.3,27.2,11.1c9.3,2.7,18.7,4.8,28.2,6.8c6.7,1.4,13.4,3.1,19.8,5.6c3.5,1.4,6.9,3,9.8,5.4c2.3,1.9,4.2,4.1,4.7,7
	c1,5.8-0.1,11.2-4.4,15.7c-3.9,4.1-8.9,6.2-14.2,7.6c-5.6,1.5-11.3,1.8-17.1,1.9c-8.3,0.1-16.6-0.4-24.7-2.5
	c-6.4-1.6-12.2-4.4-17.5-8.3c-5.3-3.8-9.6-8.6-13.5-13.8c-1.2-1.7-2.3-3.4-3.4-5.1c-0.7-1.1-0.7-1.1-1.5-0.1
	c-0.1,0.1-0.2,0.2-0.3,0.4c-3.3,3.9-6.5,7.8-9.8,11.7c-3.9,4.6-7.7,9.3-11.6,13.9c-0.7,0.8-0.6,1.3,0,2.1c3.2,4.3,6.7,8.4,10.7,12.1
	c11.7,10.7,25.8,16.5,41.2,19.4c8.3,1.6,16.7,2.3,25.2,2.6c11.7,0.3,23.3-0.6,34.8-3.5c9.3-2.3,18.1-5.9,26-11.5
	c9.6-6.8,16.5-15.6,19.7-27c2.7-9.3,2.6-18.6,0.5-28c-2.2-10-7.7-18-15.9-24.1c-6.3-4.8-13.4-8-20.8-10.7c-11-4-22.3-6.4-33.7-8.6
	c-7.3-1.4-14.5-2.9-21.5-5.2c-5-1.7-9.8-3.7-13.9-7.1c-2.4-1.9-4.4-4.3-5.2-7.3c-1.6-5.6-1-11.1,2.1-16.1c2.4-3.9,5.9-6.6,10-8.6
	c5-2.4,10.2-3.6,15.7-4c6.9-0.6,13.8-0.4,20.7,0.9c6.2,1.2,12.1,3,17.5,6.3c8.3,5,14.2,12.2,18.6,20.6c0.4,0.7,0.7,1.4,1.2,2.4l0,0
	c0.7-0.7,1.3-1.2,1.9-1.8l23.9-23.5c1.1-1.1,1.2-1.1,0.2-2.4c-3-3.9-6.2-7.5-9.7-10.9c-6.2-5.9-13-10.9-20.8-14.7
	c-10.4-5-21.5-7.7-32.9-8.8C1396.8,46.9,1392.2,46.7,1387.7,46.7L1387.7,46.7z M258.4,46.7c-4.3,0-8.5,0.3-12.8,0.8
	c-8.2,1-16.2,2.8-23.8,5.7c-12,4.6-22.3,11.7-30.6,21.5c-7.6,8.9-13.1,19.1-16.6,30.2c-4,12.6-5.9,25.5-5.8,38.8l0,0
	c0.2,4,0.3,8.1,0.6,12.1c0.6,7.4,1.8,14.6,3.7,21.8c3.6,13.5,9.6,25.7,18.9,36.2c7.2,8,15.7,14.3,25.4,18.7
	c10.9,5,22.4,7.5,34.3,8.3c11.7,0.7,23.4-0.1,34.7-3.2c26.4-7.3,43.6-24.1,52.3-50c0.4-1.3,0.4-1.3-1-1.7c-4.2-1.3-8.3-2.5-12.5-3.8
	c-7-2.1-14.1-4.3-21.2-6.5c-1-0.3-1-0.3-1.3,0.8c-0.7,2.2-1.3,4.4-2.2,6.6c-5.3,13.1-14.8,21.5-28.6,24.6c-8.1,1.9-16.3,1.7-24.4,0
	c-10.2-2.1-18.4-7.5-24.9-15.6c-4.3-5.4-7.1-11.4-9.2-18c-2.2-7.1-3.3-14.4-3.8-21.7c-0.6-9.4-0.3-18.8,1.3-28.2
	c1.4-7.8,3.7-15.2,7.7-22.1c6.1-10.6,14.9-17.9,26.8-21.2c9.7-2.7,19.4-2.6,29.2-0.2c7.9,1.9,14.2,6.2,18.8,12.9
	c3.3,4.7,5.4,10,7.1,15.4c0.1,0.3,0.1,0.7,0.3,1c0.1,0.2,0.4,0.3,0.7,0.3c0.3,0,0.6-0.2,0.9-0.3c6.6-2.8,13.2-5.6,19.8-8.4
	c4.4-1.9,8.9-3.8,13.3-5.6c0.8-0.3,1-0.7,0.7-1.5c-0.5-1.1-0.8-2.3-1.3-3.5c-6.5-16.5-17.8-28.5-33.9-36c-9.5-4.3-19.4-6.7-29.8-7.7
	C266.9,46.9,262.6,46.7,258.4,46.7L258.4,46.7z M456,46.7c-5-0.1-9.9,0.3-14.9,0.8c-8.9,1-17.6,3.1-25.9,6.4
	c-11.4,4.5-21.1,11.5-29.1,20.8c-8.1,9.5-13.8,20.3-17.3,32.3c-3.6,12-5.3,24.3-5,37.8l0,0c-0.3,7.2,0.6,15.3,2,23.2
	c1.6,9.2,4.3,18.1,8.3,26.6c8,16.6,20.1,29.2,36.6,37.3c10.5,5.1,21.6,7.9,33.2,8.8c7.6,0.6,15.1,0.7,22.7-0.2
	c6-0.8,11.9-1.7,17.6-3.4c22.4-6.6,38.9-20.2,49.3-41.2c7.6-15.2,10.5-31.5,11-48.3c0.3-9.3-0.4-18.5-2.1-27.7
	c-2-11-5.3-21.6-10.8-31.4c-8.2-14.7-19.8-25.8-35-32.9C483.8,49.5,470.1,47,456,46.7L456,46.7z M851.5,46.7
	c-5-0.1-9.9,0.2-14.9,0.8c-8.8,0.9-17.4,3-25.6,6.2c-11.5,4.5-21.4,11.5-29.4,20.9c-8.1,9.5-13.8,20.3-17.3,32.2
	c-3.6,12-5.3,24.3-5,37.8h0c-0.3,7.2,0.6,15.2,2,23.2c2,11.4,5.6,22.3,11.4,32.5c8,14,19.3,24.6,33.8,31.6c10.3,5,21.4,7.7,32.8,8.7
	c7.6,0.6,15.2,0.8,22.9-0.2c5.1-0.7,10.2-1.4,15.2-2.8c24-6.4,41.6-20.7,52.4-43.2c7.1-14.8,9.9-30.6,10.3-46.9
	c0.3-9.3-0.4-18.5-2.1-27.7c-2-11-5.3-21.6-10.8-31.4c-7.8-14-18.7-24.8-33.1-32C880.7,49.7,866.4,47,851.5,46.7L851.5,46.7z
	 M0,49.7L0,49.7l0,188.2c47.9,0,95.8,0,143.8,0c0.2,0,0.3,0,0.5,0c0.9,0.1,1.2-0.2,1.1-1.1c0-0.3,0-0.5,0-0.8c0-9.3,0-18.7,0-28
	c0-0.3,0-0.6,0-0.9c0-0.5-0.2-0.8-0.7-0.8c-0.4,0-0.7,0-1.1,0H71.3c-10,0-20.1,0-30.1,0c-1.6,0-1.6,0-1.6-1.6v-1.1
	c0-14.3,0-28.5,0-42.7c0-2.6-0.3-2.3,2.3-2.3c25.4,0,50.7,0,76.1,0c1.8,0,1.7,0.1,1.7-1.7c0-9,0-17.9,0-26.9c0-1.6,0-1.6-1.6-1.6
	H93.1c-17.3,0-34.6,0-52,0c-1.6,0-1.6,0-1.6-1.6v-15.2V83.2c0-1.7,0-1.7,1.8-1.7h0.2c32.3,0,64.7,0,97,0c0.6,0,1.1,0,1.7,0
	c0.8,0.1,1.3-0.2,1.2-1.1c0-0.5,0-0.9,0-1.4c0-8.9,0-17.8,0-26.8c0-2.7,0.3-2.3-2.4-2.3c-45.6,0-91.2,0-136.9,0
	C1.4,49.8,0.7,49.7,0,49.7L0,49.7z M625.7,49.8c-13,0-26,0-39.1,0c-2.3,0-2-0.3-2,2.1v91.9v31.7v60.6c0,2.1-0.2,1.9,1.9,1.9
	c11.8,0,23.6,0,35.4,0c2.2,0,2,0.2,2-2v-64.4c0-0.5,0-0.9,0-1.4c0-0.6,0.3-0.8,0.9-0.8c0.3,0,0.6,0,0.9,0c11.4,0,22.9,0,34.3,0
	c5.2,0,10.3-0.1,15.5-0.6c8-0.9,15.8-2.5,23.2-5.6c7.6-3.1,14.4-7.5,20-13.5c7.9-8.5,11.9-18.8,13.5-30.1c1.1-8,0.8-16.1-0.9-24
	c-3.9-18.5-14.3-31.7-31.9-39.2c-11.1-4.7-22.7-6.5-34.6-6.6C651.7,49.8,638.7,49.8,625.7,49.8L625.7,49.8z M980.9,49.8
	c-0.9,0-0.7,0.3-0.7,2v92l0,0c0,30.7,0,61.3,0,92c0,2.6-0.4,2.2,2.3,2.2c36.8,0,73.7,0,110.6,0h24.1c1.4,0,1.5,0,1.5-1.4
	c0-9.5,0-19.1,0-28.6c0-1.5,0-1.5-1.5-1.5h-11.2c-28,0-56.1,0-84.1,0c-2.7,0-2.3,0.3-2.3-2.4V52.3c0-0.5,0-1,0-1.5c0-0.8-0.3-1-1-1
	c-0.4,0-0.7,0-1.1,0c-11.7,0-23.5,0-35.2,0C981.5,49.8,981.1,49.8,980.9,49.8L980.9,49.8z M1230.4,52.4h40c2.1,0,1.9-0.1,1.9,1.9
	v123.9v35.8c0,0.4,0,0.8,0,1.2c0,1.1-0.1,1.1-1,0.7c-1.9-0.8-3.8-0.8-5.6,0.1c-1,0.5-1,0.5-1-0.7c0-3.3,0-6.7,0-10
	c0-2.9,0-5.8,0-8.8c0-1.4,0-1.4-1.3-1.4c-3.1,0-6.3,0-9.4,0c-0.8,0-1.1,0.2-1.1,1c0,7.8,0,15.7,0,23.5c0,1.5,0,1.5,1.6,1.5
	c1.8,0,3.6,0,5.4,0c0.4,0,0.7-0.1,1.1,0c0.2,0.1,0.4,0.4,0.6,0.5c-0.2,0.1-0.4,0.3-0.6,0.3c-0.7,0-1.4-0.2-2.1-0.1
	c-3.2,0.4-5.7,2.8-6.4,6c-0.3,1.1-1,1.7-2.1,1.7c-6.6,0-13.2,0-19.8,0c-1.6,0-1.6,0-1.6-1.6v-87.2l0,0V54
	C1228.6,52.4,1228.6,52.4,1230.4,52.4L1230.4,52.4z M1165.5,56.3c7.1,0,14.1,0,21.2,0c1.3,0,1.4,0,1.4,1.4v11.7l0,0
	c0,3.9,0,7.8,0,11.7c0,1.4,0,1.4-1.3,1.4c-7.1,0-14.2,0-21.4,0c-0.9,0-1.1-0.3-1.1-1.2c0-7.9,0-15.9,0-23.8
	C1164.3,56.3,1164.4,56.3,1165.5,56.3L1165.5,56.3z M1196.3,56.3h20.4c1.6,0,1.6,0,1.6,1.6v11.5h0v11.5c0,1.5,0,1.5-1.4,1.5
	c-7,0-14,0-21.1,0c-1.3,0-1.3,0-1.3-1.2c0-7.7,0-15.5,0.1-23.2C1194.5,56.3,1194.6,56.3,1196.3,56.3L1196.3,56.3z M1253.8,56.3
	c-0.8,0-1,0.3-1,1.1c0,7.9,0,15.8,0,23.6c0,1.3,0,1.3,1.3,1.3c3.1,0,6.1,0,9.2,0c1.2,0,1.3,0,1.3-1.3c0-3.9,0-7.8,0-11.7l0,0
	c0-3.9,0-7.8,0-11.7c0-1.3,0-1.3-1.2-1.4C1260.1,56.4,1257,56.4,1253.8,56.3L1253.8,56.3z M1243.6,56.3c-1.5,0-3,0-4.5,0
	c-1.5,0-1.5,0-1.5,1.5v11.4l0,0c0,3.9,0,7.9,0,11.8c0,1.2,0,1.3,1.3,1.3c3.1,0,6.2,0,9.2,0c1.3,0,1.3,0,1.3-1.4V57.7
	c0-1.3-0.1-1.4-1.4-1.4C1246.5,56.3,1245,56.3,1243.6,56.3L1243.6,56.3z M1291.3,58c-0.2,0-0.4,0.1-0.7,0.3
	c-1.3,0.9-2.7,1.8-4.1,2.6c-0.6,0.3-0.5,0.6-0.2,1.1c1.5,2.4,3.1,4.8,4.6,7.3c0.1,0.2,0.3,0.4,0.5,0.6c0.9,1,2.1,1.4,3.3,0.9
	c1.5-0.6,2.4-1.7,2.4-3.4v0c-0.1-0.2-0.2-0.8-0.4-1.3c-1.5-2.5-3.1-5.1-4.6-7.6C1291.7,58.1,1291.5,58,1291.3,58L1291.3,58z
	 M452.5,78.9c5.9-0.2,11.7,0.6,17.5,2.3c10.9,3.3,19,10.3,24.6,20.1c3.3,5.7,5.4,11.8,6.8,18.2c1.8,8,2.3,16.2,2.5,24.1
	c-0.2,7.2-0.5,14-1.7,20.7c-1,5.8-2.5,11.5-5,16.9c-4.5,10.1-11.3,18.1-21.4,23c-5.7,2.8-11.7,4.3-18,4.6
	c-5.9,0.2-11.8-0.1-17.5-1.6c-11.1-2.9-19.7-9.3-25.8-19c-4.3-6.8-6.8-14.2-8.3-22c-2-10.2-2.3-20.5-1.7-30.9
	c0.5-8.1,1.8-16.1,4.4-23.8c2-5.8,4.7-11.2,8.5-16.1c6.3-8,14.5-13,24.4-15.2C445.5,79.4,449,79,452.5,78.9L452.5,78.9z M848.5,78.9
	c5.8-0.1,11.5,0.7,17.1,2.3c10.9,3.2,18.9,10.2,24.5,20c3.3,5.7,5.4,11.9,6.9,18.3c1.8,8,2.3,16.2,2.5,24v0
	c-0.2,7.3-0.5,14.1-1.7,20.8c-1.3,7.3-3.4,14.5-7,21c-5.6,10-13.5,17.2-24.5,21c-4.4,1.5-8.9,2.2-13.5,2.4c-6.5,0.3-13-0.3-19.3-2.3
	c-7.4-2.4-13.7-6.5-18.9-12.4c-6.4-7.3-10-16-12.2-25.3c-2.5-11-2.9-22.1-2.3-33.3c0.4-7.2,1.5-14.3,3.5-21.2
	c1.9-6.3,4.5-12.2,8.4-17.5c6.5-9,15.3-14.5,26.1-16.7C841.6,79.4,845,79,848.5,78.9L848.5,78.9z M625.7,81.1c10.7,0,21.4,0,32.1,0
	c6.3,0,12.5,0.7,18.5,2.7c9.9,3.5,15.2,10.7,16.3,21c0.5,4.5,0.4,8.9-0.5,13.3c-1.7,8.4-6.7,14.1-14.5,17.4
	c-5.2,2.3-10.7,3.2-16.3,3.3c-8.2,0.1-16.4,0.1-24.6,0.1c-3.6,0-7.2,0-10.8,0c-2.2,0-2,0.2-2-1.9v-26.9V83.1c0-0.4,0-0.8,0-1.2
	c0-0.5,0.2-0.8,0.7-0.8C625,81.1,625.4,81.1,625.7,81.1L625.7,81.1z M1195.4,91c0.3,0,0.7,0,1.2,0c6.4,0,12.8,0,19.2,0
	c0.4,0,0.7,0,1.1,0c1.4,0,1.5,0,1.5,1.5v11.8h0v11.5c0,1.3,0,1.4-1.4,1.4c-6.9,0-13.8,0-20.7,0c-0.3,0-0.6,0-0.9,0
	c-0.6,0-0.8-0.3-0.8-0.9c0-0.1,0-0.2,0-0.3c0-7.7,0-15.4,0-23C1194.5,91.2,1194.5,91,1195.4,91L1195.4,91z M1165.4,91
	c7.1,0,14.2,0,21.4,0c1.3,0,1.3,0.1,1.3,1.5v11.7v11.7c0,1.3,0,1.4-1.4,1.4c-7.1,0-14.1,0-21.2,0c-1.2,0-1.2,0-1.2-1.2
	c0-7.9,0-15.9,0-23.8C1164.3,91.3,1164.5,91,1165.4,91L1165.4,91z M1248.1,91c-3.1,0-6.1,0-9.2,0.1c-1.3,0-1.3,0-1.3,1.4V104l0,0
	c0,4,0,8,0,12c0,0.8,0.2,1.2,1.1,1.2c3.2,0,6.4,0,9.7,0c0.9,0,1.1-0.4,1.1-1.2c0-7.9,0-15.8,0-23.6C1249.4,91,1249.4,91,1248.1,91
	L1248.1,91z M1253.8,91c-0.9,0-1,0.4-1,1.1c0,7.9,0,15.8,0,23.6c0,1.3,0,1.3,1.3,1.3c3.1,0,6.1,0,9.2,0c1.3,0,1.3,0,1.3-1.3
	c0-3.9,0-7.8,0-11.7l0,0c0-3.9,0-7.9,0-11.8c0-1.3,0-1.3-1.3-1.3C1260.1,91.1,1256.9,91.1,1253.8,91L1253.8,91z M1165.7,125.7
	c7,0,13.9,0,20.9,0c1.5,0,1.5,0,1.5,1.4c0,7.8,0,15.6,0,23.4c0,1.3,0,1.4-1.3,1.4h-21.1c-1.4,0-1.4,0-1.4-1.5v-11.5l0,0v-11.7
	C1164.3,125.8,1164.3,125.7,1165.7,125.7L1165.7,125.7z M1196.1,125.7c6.9,0,13.8,0,20.7,0c1.4,0,1.4,0,1.4,1.5v11.5h0v11.5
	c0,1.6,0,1.6-1.5,1.6c-7,0-13.9,0-20.9,0c-1.4,0-1.4,0-1.4-1.3c0-7.7,0-15.5,0-23.2C1194.5,125.8,1194.6,125.7,1196.1,125.7
	L1196.1,125.7z M1253.9,125.8c-0.8,0-1.2,0.2-1.1,1c0.1,0.7,0,1.4,0,2.1c0,7.1,0,14.1,0,21.2c0,1.6,0,1.6,1.6,1.6h8.8
	c1.4,0,1.4,0,1.4-1.4v-11.5c0-3.9,0-7.9,0-11.8c0-1.2,0-1.2-1.2-1.2C1260.2,125.8,1257,125.8,1253.9,125.8L1253.9,125.8z
	 M1238.7,125.8c-0.8,0-1.2,0.2-1.2,1.1c0,7.9,0,15.9,0,23.8c0,0.9,0.3,1.1,1.2,1.1c3.1,0,6.2,0,9.4,0c1.3,0,1.3,0,1.3-1.4v-11.5
	v-11.7c0-1.4,0-1.4-1.3-1.4C1245,125.8,1241.8,125.8,1238.7,125.8L1238.7,125.8z M1197.4,160.5c6.2,0,12.4,0,18.6,0
	c0.4,0,0.7,0,1.1,0c1.2,0.1,1.3,0.1,1.3,1.3c0,3.9,0,7.9,0,11.8h0v11.5c0,1.5,0,1.5-1.5,1.5c-6.9,0-13.7,0-20.6,0
	c-1.7,0-1.7,0-1.7-1.7c0-7.2,0-14.4,0-21.7C1194.5,160.4,1194.6,160.5,1197.4,160.5L1197.4,160.5z M1165.8,160.5h20.5
	c0.3,0,0.5,0,0.8,0c0.8-0.1,1.2,0.3,1.1,1.2c0,2.1,0,4.2,0,6.3v5.7l0,0v11.5c0,1.5,0,1.5-1.4,1.5c-7,0-14,0-21.1,0
	c-1.3,0-1.3,0-1.3-1.4c0-7.8,0-15.6,0-23.4C1164.3,160.5,1164.3,160.5,1165.8,160.5L1165.8,160.5z M1253.9,160.5
	c-0.8,0-1.1,0.3-1.1,1.1c0,0.9,0,1.8,0,2.8v20.6c0,1.6,0,1.6,1.6,1.6c2.9,0,5.8,0,8.8,0c1.4,0,1.5,0,1.5-1.4v-11.5
	c0-3.9,0-7.9,0-11.8c0-1.2,0-1.3-1.2-1.3C1260.2,160.5,1257,160.5,1253.9,160.5L1253.9,160.5z M1243.5,160.5c-1.5,0-3.1,0-4.6,0
	c-1.3,0-1.4,0-1.4,1.4v11.7h0c0,3.9,0,7.9,0,11.8c0,1.2,0,1.2,1.2,1.2c3.1,0,6.2,0,9.4,0c1.3,0,1.3,0,1.3-1.3c0-7.8,0-15.7,0-23.5
	c0-1.3,0-1.3-1.3-1.3C1246.6,160.5,1245.1,160.5,1243.5,160.5L1243.5,160.5z M1184,195.1c4.9,0,9.8,0,14.7,0c0.6,0,1.2,0,1.7,0.2
	c1,0.4,1.3,1.2,1.3,2.2v5.8v12.9l0,0v18.4c0,1.5,0,1.5-1.5,1.5c-5.9,0-11.8,0-17.7,0c-1.3,0-1.4,0-1.4-1.3c0-12.2,0-24.5,0-36.7
	c0-0.5,0-0.9,0.1-1.4c0.2-1,0.8-1.5,1.8-1.6C1183.3,195.1,1183.6,195.1,1184,195.1L1184,195.1z M1243.4,195.3c-1.5,0-3,0-4.5,0
	c-1.3,0-1.3,0-1.3,1.3c0,7.8,0,15.7,0,23.5c0,1.2,0,1.2,1.3,1.2c3.1,0,6.1,0,9.2,0c1.3,0,1.3,0,1.3-1.4v-11.5l0,0v-11.5
	c0-1.6,0-1.6-1.5-1.6C1246.4,195.3,1244.9,195.3,1243.4,195.3L1243.4,195.3z"/>
</svg>
