<?xml version="1.0" encoding="UTF-8"?>
<svg id="Layer_2" data-name="Layer 2" xmlns="http://www.w3.org/2000/svg" viewBox="0 0 671.04 581.04">
  <g id="Layer_1-2" data-name="Layer 1">
    <g>
      <path d="m671.04,244.22v17.27c-.16,1.26-.43,2.52-.45,3.78-.15,10.57-1.56,21.03-3.16,31.45-1.87,12.24-4.51,24.33-7.72,36.3-4.67,17.4-10.72,34.31-18.13,50.72-10.7,23.7-24.04,45.84-39.91,66.44-13.31,17.28-28.17,33.11-44.59,47.48-24.41,21.36-51.33,38.86-80.79,52.46-13.81,6.37-28,11.78-42.55,16.16-14.09,4.25-28.39,7.6-42.91,10.03-13.1,2.18-26.28,3.57-39.54,4.24-2.22.11-4.44.33-6.66.49h-17.28c-1.02-.15-2.04-.37-3.06-.43-5.58-.35-11.17-.59-16.75-.99-13.17-.93-26.19-2.95-39.11-5.61-18.66-3.85-36.89-9.17-54.65-16.11-24.61-9.61-47.75-21.96-69.44-37.04-20.63-14.34-39.41-30.79-56.36-49.34-11.72-12.83-22.36-26.51-31.96-40.99-13.69-20.66-24.92-42.58-33.73-65.75-7.6-19.99-13.17-40.53-16.9-61.57-2.38-13.46-3.97-27.02-4.57-40.68-.09-2.11-.55-4.21-.84-6.31,0-3.68,0-7.36,0-11.04.26-.29.61-.55.76-.89.77-1.79,2.22-2.42,4.03-2.46,1.04-.02,2.08,0,3.12-.02,1.16-.02,2.33-.08,3.49-.12.09-.76.16-1.24.19-1.71.45-7.66.9-15.32,1.33-22.98.97-17.4,1.94-34.79,2.89-52.19.88-16.2,1.73-32.4,2.61-48.61.05-.88.17-1.75.24-2.63.1-1.24.86-1.85,2-2.03.63-.1,1.27-.08,1.91-.08,72.15,0,144.29,0,216.44,0,.72,0,1.45,0,2.15.12,1.06.2,1.7.86,1.71,1.99,0,.56-.03,1.12-.09,1.67-.67,6.28-1.33,12.55-2.02,18.83-1.21,11.12-2.43,22.24-3.64,33.36-1.09,10.01-2.17,20.02-3.23,30.03-.08.74-.01,1.49-.01,2.36,1.04-.17,1.83-.33,2.62-.42,3.81-.43,7.62-1.18,11.43-1.2,8.88-.04,17.46,1.77,25.74,4.99,12.15,4.73,22.85,11.74,32.28,20.71.73.69,1.43,1.15,2.5,1.13,3.2-.06,6.4-.05,9.6,0,.96.01,1.63-.35,2.32-.99,1.99-1.85,3.98-3.7,6.1-5.4,11.1-8.93,23.35-15.61,37.36-18.78,1.08-.24,2.16-.5,3.42-.78,0-.97,0-1.84,0-2.71,0-7.2-.01-14.39.02-21.59,0-.75.1-2,.51-2.17,1.56-.64,1.26-1.85,1.26-3,0-9.27,0-18.55.01-27.82,0-.92.13-1.85.2-2.82,1.15-.17,2.07-.31,3.24-.49v-2.89c0-12.23,0-24.47,0-36.7,0-1.04,0-2.09.19-3.1,2.24-11.68,4.52-23.36,6.79-35.04,3.79-19.52,7.57-39.05,11.38-58.57.15-.76.56-1.46.85-2.19.16,0,.32,0,.48,0,.37,1.29.85,2.55,1.11,3.86,2.86,14.57,5.7,29.14,8.53,43.72,2.65,13.63,5.25,27.27,7.99,40.89,1.15,5.73,1.88,11.45,1.76,17.33-.19,9.99-.06,19.98-.05,29.98,0,.92.08,1.85.13,2.71q2.76.44,3.2,3.64c.89,0,1.83,0,2.77,0,17.35,0,34.71,0,52.06,0,2.64,0,5.44.49,7.87-.23,2.6-.77,4.84-2.71,7.24-4.15.07-.04.13-.09.21-.12,1.2-.5,1.51-1.42,1.5-2.69-.06-6.07-.02-12.15-.03-18.23,0-.4.04-.82-.06-1.19-.95-3.3-.39-6.68-.46-10.02-.05-2.03.15-2.19,2.19-2.2,9.12-.02,18.23-.01,27.35,0,.6,0,1.2.18,1.95.31.26,10.1-1.22,20.03-.29,30.04h72.82c.59-1.65,1.12-3.12,1.73-4.82-2.39-3.28-3.64-7.18-3.85-11.86-1.02-1.1-1.36-3.13-2.95-4.49-1.09-.94-.67-2.6.59-3.57,1.85-1.41,2.27-3.37,2.25-5.47-.02-2.04,1.22-3.38,3.24-3.2.54.05,1.07.23,1.46.32,1.65-1.31,3.61-1.8,5.01-3.29.79-.85,2.4-.45,3.25.45.43.45.72,1.03,1.06,1.53,1.98.03,3.62,1.49,5.73,1.15.58-.09,1.64.99,1.98,1.76.35.78.08,1.83.08,2.81.33.76.65,1.64,1.08,2.46.24.45.6.87.99,1.21,1.95,1.7,1.94,3.36-.07,4.92-.31.24-.88.51-.86.72.18,1.67-1.89,2.92-.84,4.74.12.21-.09.61-.11.92-.25,2.92-1.19,5.6-2.77,8.07-.31.49-.51,1.18-.46,1.75.1,1.25.38,2.49.63,4.03.82,0,1.68,0,2.53,0,5.6,0,11.2.06,16.79-.03,1.84-.03,3.36.41,4.92,1.38,7.38,4.63,14.79,9.22,22.27,13.68,1.86,1.11,2.59,2.3,2.58,4.52-.08,28.38-.05,56.76-.05,85.14,0,1.01,0,2.03,0,3.18,1.09.06,1.87.12,2.65.13,2.48.02,4.96.07,7.44-.01,2.09-.07,3.74.55,4.81,2.42Zm-293.25,330.12c40.22-4.58,91.78-19.68,139.43-50.92,33.31-21.84,61.86-48.7,85.68-80.86-3.42-3.8-6.55-7.54-9.96-11-4.94-5.01-9.96-9.94-15.15-14.68-11.68-10.67-24.61-19.59-38.7-26.8-11.43-5.85-23.46-10.1-35.97-12.97-13.92-3.2-27.86-6.35-41.82-9.36-14.82-3.2-29.68-6.22-44.52-9.33-17.42-3.66-34.77-7.62-51.85-12.67-12.27-3.62-24.35-7.8-35.74-13.7-8.27-4.28-16.04-9.3-22.26-16.37-7.17-8.16-10.8-17.57-9.84-28.56.62-7.12,2.98-13.7,6.26-19.97,3.19-6.1,7.08-11.77,11.28-17.22,1-1.3,1.98-2.63,3.32-4.42H4.48c-.15.47-.28.69-.28.91.21,7.5.29,15.01.71,22.49.32,5.64.93,11.28,1.72,16.87,1.22,8.6,2.45,17.21,4.13,25.73,3.23,16.39,7.81,32.42,13.59,48.1,4.11,11.17,8.74,22.12,14.09,32.76.3.6.71,1.13,1.12,1.79,2.76-2.34,5.29-4.53,7.87-6.65,12.61-10.42,25.97-19.7,41.05-26.26,11.55-5.03,23.53-8.14,36.25-7.64,5.62.22,11.1,1.21,16.35,3.27,7.43,2.9,13.63,7.64,19.29,13.12,5.29,5.13,9.82,10.92,14.05,16.94,9.06,12.91,16.57,26.74,24.14,40.54,6.76,12.32,13.41,24.71,21.05,36.53,6.65,10.29,13.93,20.09,23.23,28.21,6.54,5.71,13.89,9.93,22.36,12.05,18.29,4.57,35.77,11.24,52.51,19.9,10.81,5.6,21.13,11.97,30.78,19.4,6.91,5.32,13.5,11.01,19.1,17.73,3.47,4.16,6.69,8.54,10.2,13.04ZM229.89,200.47c3.03-28.15,6.09-56.55,9.17-85.14H101.38c-1.6,28.91-3.19,57.67-4.78,86.41.37.04.54.11.68.07.62-.17,1.22-.37,1.83-.56,12.38-3.8,24.82-4.11,37.31-.6,15.17,4.26,28.21,12.21,39.63,22.93,1.07,1.01,2.1,1.52,3.58,1.46,2.71-.11,5.44-.08,8.15,0,1.29.03,2.23-.35,3.18-1.27,7.12-6.88,15.11-12.58,23.99-16.93,4.72-2.31,9.67-4.14,14.94-6.37Zm287.32-42.19v82.72h3c17.99,0,35.98,0,53.97,0,.64,0,1.29.07,1.91-.04.58-.1,1.12-.39,1.87-.66-1.71-3.32-.69-5.71,1.91-7.74,1.21-.94,1.61-2.35,1.36-3.89-.3-1.88-.35-3.81-1.5-5.48-.61-.89-.59-1.92.25-2.61,1.23-1.02.9-1.97.31-3.15-1.15-2.3-.9-4.5.99-6.33.79-.77,1.02-1.52.65-2.56-.21-.59-.12-1.27-.26-1.89-.68-3.01-.07-5.54,2.33-7.08-.4-1.79-1.12-3.41-1.03-4.98.16-2.59.82-5.16,1.32-7.73.1-.54.29-1.14.64-1.53,1-1.09,1.09-2.38,1.2-3.76.27-3.31,1.28-4.14,4.63-3.99.45-.97,1.14-1.87.5-3.09-1.45-2.75-1.27-5.49.05-8.26.27-.57.29-1.39.12-2-.55-1.91-1.14-3.79-.63-5.96h-73.6Zm89.45,22.27c.61-.9.94-1.53,1.4-2.03,1.31-1.41,2.97-1.23,3.98.42.24.4.45.87.52,1.33.35,2.19.69,4.35,1.96,6.27.36.54.25,1.39.37,2.09.11.7.14,1.43.36,2.1.95,2.96,1.56,5.89-.71,8.6,4.44,2.85,2.87,6.87,2.28,10.62,2.56,2.4,3.36,5.07,1.58,8.2-.47.82-.3,1.49.36,2.15.95.95,1.17,2.01.46,3.25-.44.76-.81,1.57-1.05,2.41-.81,2.84-.86,5.46,1.8,7.56,1.85,1.47,2.52,3.45,1.54,5.78-.14.34-.13.73-.27,1.54,2.77.3,5.37.13,7.96.15,2.72.03,5.44,0,8.16,0s5.28.02,7.92,0c2.68-.03,5.37.13,7.99-.1.56-5.79.3-80.93-.25-82.6h-46.58c-1.08,1.71-1.36,3.22.11,4.67.22.22.34.54.48.83,1.19,2.44.91,4.07-1.02,6.07-.32.33-.61.68-.96,1.09,2.87,2.72,2.33,5.98,1.64,9.61Zm-186.59-8.53c2.86.53,42.3.37,44.08-.23,0-.81,0-1.68,0-2.56,0-5.51.07-11.02-.04-16.53-.04-1.75.53-2.8,2.06-3.59,1.56-.8,3.01-1.81,4.49-2.76.33-.21.58-.56.98-.95-3.86-.47-50.15-.3-51.9.16-.47,5.24-.23,24.67.33,26.46Zm1.62,28.76c3.82.6,40.58.46,42.32-.12v-25.36h-25.49c-2.88,0-5.75-.02-8.63,0-2.75.03-5.52-.15-8.2.12v25.35Zm4.61,39.43c4,.56,36.09.34,37.7-.22.43-4.2.25-24.53-.25-26.32h-37.44v26.53Zm90.81-90.15h73.38c.38-2.55,1-4.92,2.64-6.91.25-.3.19-.89.18-1.34,0-1.3-.06-2.6-.1-4.27-.55-.91-1.83-.89-3.14-.89-23.5.01-47,0-70.5.01-.78,0-1.55.08-2.46.13v13.26Zm-131.95-51.72c-.54,5.24-.31,38.49.25,40.17h22.87c.56-2.86.46-38.48-.08-40.17h-23.04Zm112.57,35.04c-.54,2.68-.44,105.67.13,107.61,2.09,0,4.24,0,6.39,0,.46,0,.92-.1,1.5-.17v-107.59c-2.78,1.28-5.41,1.23-8.01.16Zm-105.05-116.98c-.19,0-.39.02-.58.02-2.22,25.21-4.44,50.43-6.65,75.64-.08.95-.03,1.91-.03,2.86,0,.07.05.15.1.21.05.06.12.1.19.15,4.04.47,20.46.28,22.26-.3-5.09-26.18-10.19-52.38-15.29-78.58Zm18.72,125.4c-4.26-.52-27.96-.33-29.63.2v30.13h29.63v-30.33Zm-155.56,99.71c3.29.54,109.5.39,111.18-.11.38-2.93.29-5.65-.23-7.25h-111.45c.17,2.54.34,4.9.51,7.36Zm-29.66-7.1c-.33-.19-.47-.33-.6-.33-32.24-.03-64.48-.06-96.71-.08-.88,0-1.75.08-2.63.13-.07,0-.13.09-.19.14-.06.05-.12.11-.3.27.2,2.32.42,4.74.62,7.1,5.87.57,97.35.3,99.12-.28.23-2.33.47-4.68.69-6.94Zm171.9-30.06v36.03h19.32v-36.03h-19.32Zm14.26-12.83c.19-.05.38-.1.57-.15-.03-5.28.08-10.56-.07-15.79-3.27-.5-30.33-.37-32.12.11v64.69h4.37v-2.7c0-10.95.05-21.89-.04-32.84-.02-2.03.52-3.69,1.65-5.33,2.89-4.22,5.64-8.53,8.51-12.76,2.7-3.97,1.37-3.25,6.29-3.32.72-.01,1.45.06,2.16-.01,1.59-.18,2.7.39,3.65,1.72,1.58,2.2,3.34,4.26,5.03,6.38Zm198.92,13.83c-.28-1.97-.48-3.34-.69-4.82h-5.06c-2.4,5.3-7.71,6.29-11.58,2.27-1.23-1.27-3.06-1.04-3.82.72-2.05,4.74-3.2,9.67-2.17,14.87.39,1.95,1.42,3.52,4.35,3.46,7.1-.15,14.21-.04,21.31-.05.69,0,1.38-.08,2.07-.12-.17-1.61-.83-3.02.12-4.51,1.5-2.35,1.36-3.3-.81-5.09-.97-.8-1.13-1.55-.89-2.69.34-1.63.55-3.28.74-4.93.09-.78-.07-1.55-.95-2.12-.78.89-1.49,1.7-2.62,3.01Zm-349.63.45c-2.65,6.44-5.21,12.67-7.83,19.05h43.57c-10.35-9.19-22.01-15.71-35.73-19.05Zm-93.8,19.05c-6.84-7.26-24.89-17.22-35.8-18.78-2.59,6.17-5.24,12.36-7.71,18.78h43.51Zm481.49-74.81c-.35-.48-.42-.65-.54-.73-6.52-4.03-13.04-8.06-19.59-12.05-.58-.35-1.34-.57-2.01-.58-6.71-.04-13.43-.06-20.14,0-2.38.02-3.66,2.42-2.48,4.5,1.38,2.41,1.25,4.7-.42,6.91-.24.31-.46.64-.66.91.62,1.47,1.85,1.15,2.93,1.15,13.51.01,27.01,0,40.52,0,.69,0,1.38-.06,2.39-.11Zm-284.66,55.86c-11.72,2.45-32.22,13.38-35.59,18.89,3.23.47,36.27.32,38.14-.24,0-3.13-.17-6.33.05-9.5.24-3.39-1.19-6.17-2.59-9.15Zm251.17,17.8c-.81-.04-1.51-.11-2.21-.11-5.19,0-10.38-.05-15.56,0-3.53.04-6.09,2.09-8.4,4.46-.4.41-.68,1.51-.42,1.91,1.34,2.06.62,3.73-.57,5.5-1.85,2.76-1.33,3.72,2.01,3.93.24.01.48,0,.72,0,6.62.05,13.24.11,19.87.16,2,.01,3.99.05,5.99-.02,1.58-.06,2.5-1.63,1.78-3.05-.28-.54-.76-1.01-1.23-1.42-2.22-1.94-3.16-4.32-2.61-7.26.24-1.31.42-2.63.65-4.11Zm-386.81-15.81c-7.2.96-27.06,12.73-29.46,17.03h27.66c.65-5.68,1.32-11.32,1.8-17.03Zm-115.67,16.97c-2.69-6.51-5.26-12.73-7.89-19.11-2.56.78-4.85,1.44-7.12,2.18-2.17.71-2.25.91-2.35,3.25-.11,2.63-.34,5.25-.45,7.87-.07,1.89-.01,3.78-.01,5.81h17.82Zm350.63-14.39v-6.13h-37.69v6.13h37.69Zm141.87-11.71c1.58,0,3.17.09,4.74-.02,1.64-.12,3.07-2.36,2.82-4.06-.29-2.01-1.23-3.88-1.09-6,.05-.79-.33-1.86-.91-2.37-1.12-.99-1.26-2.13-1.22-3.44.01-.46-.15-.93-.27-1.57-1.05,1.44.3,3.29-1.34,4.46-1.24-1.06-2.42-2.08-3.6-3.1-1.05-.91-2.11-1.06-3.51-.61-2.94.95-5.96,1.63-9.3,2.52-.64,1.88-1.43,4.05-2.08,6.25-.33,1.11-.93,2.56.16,3.35,1.22.89,2.48-.16,3.43-.94,1.86-1.52,3.95-1.95,6.27-1.81,2.59.15,4.54,1.61,5.27,4.11.28.97.38,2,.61,3.23Zm-374.9,26.11h12.05c-2.67-6.48-5.26-12.75-7.89-19.15-.94.37-1.57.62-2.21.87-.65,6.08-1.28,12.01-1.95,18.28Zm17.44-2.35c2.55-6.16,4.87-11.78,7.3-17.66-5-.85-9.65-.93-14.58.04,2.44,5.91,4.75,11.48,7.28,17.62Zm-122.45-17.46c-3.75-1.21-11.62-1.09-14.23.17,2.28,5.52,4.57,11.06,6.86,16.59.16-.02.32-.05.48-.07,2.27-5.51,4.55-11.03,6.89-16.69Zm-14.4,29.04h-16.44c-.81,2.54-.53,5.02-.57,7.58h16.47c.18-2.52.36-4.93.55-7.58Zm303.72-33.07c-.51-1.72-7.88-11.15-9.63-12.37-2.23,3.16-6.15,10.71-6.41,12.37h16.04Zm187.95-89.44c2.36-.17,4.5-.32,6.64-.48-1.91-.52-4,.15-6.06-1.19,1.13-.69,1.98-1.21,2.99-1.82-1.62-.54-2.82,1.26-4.43.15.87-1.08,1.66-2.05,2.44-3.02-.1-.09-.21-.18-.31-.28l-2.64,2.01c-.15-.11-.3-.21-.45-.32.37-1.23.74-2.45,1.24-4.11-1.66,1.28-1.34,3.41-3.56,4.03v-6.63c-1.11,1.79.1,3.95-1.45,5.85-.42-.5-.76-.8-.97-1.17-.23-.41-.32-.91-.54-1.33-.18-.34-.47-.62-.85-1.1-.19,1.92,1.46,3.26.66,5.3-1.84-1.61-3.52-3.07-5.19-4.53-.11.11-.22.23-.34.34.75.76,1.54,1.48,2.22,2.3.63.76,1.93,1.23,1.45,2.82-1.21-.4-2.28-.75-3.35-1.11-.05.13-.11.25-.16.38,1.15.68,2.31,1.36,3.87,2.29-2.5,1.29-4.8.43-7.27,1.01,2.28.65,4.43-.12,6.66,1.25-1.59.8-2.84,1.44-4.1,2.08l.16.44c1.48-.48,2.97-.97,4.49-1.47,3.15,3.21,6.19,2.06,9.22-.2-.08-.34-.17-.71-.36-1.5Zm-373.21,122.5c-.21,2.68-.97,5.06-.5,7.6h10.85c.71-2.3.86-5.72.34-7.6h-10.7Zm370.72-83.69c-1.44,1.24-3.05,2.33-4.27,3.76-1.35,1.59-2.06,3.58-1.62,5.76.29,1.42,1.09,2.16,2.38,2.32,3.34.42,6.68-2.31,6.57-5.64-.08-2.4-.69-4.75-3.05-6.21Zm.92,21.21c-2.01,1.18-4.02,2.31-5.95,3.54-.41.26-.73.85-.86,1.34-.53,1.96.61,4.06,2.68,4.28,1.84.2,3.75-.21,5.63-.38.21-.02.46-.17.61-.33,1.15-1.21,1.11-5.46-.1-6.69-.6-.62-1.3-1.14-2.01-1.76Zm-7.53-49.29c-.53,3.18.52,5.31,3.19,5.94,1.73.41,3.61.24,5.42.29.29,0,.69-.12.86-.33,1.56-1.96,2.92-4.02,3.21-6.95-4.23,2.49-8.32,2.54-12.68,1.05Zm8.19,39.71c-2.31,1.21-4.39,2.38-6.55,3.4-1.92.91-2.29,2.42-.49,3.5,1.37.82,3.1,1.11,4.7,1.49.56.14,1.41.07,1.81-.27,1.19-1.02,2.26-2.2,3.29-3.39.16-.19-.02-.76-.15-1.11-.54-1.43-1.24-2.75-2.62-3.62Zm-1.63-22.37c-3.21,1.41-4.94,3.87-5.38,7.28-.02.16-.06.32-.07.47-.04,1.16-.53,2.57.85,3.21,1.3.6,2.47-.28,3.57-.91.23-.13.32-.51.49-.76.49-.69.92-1.44,1.5-2.04,1.45-1.49,1.64-2.76.59-4.5-.52-.86-1-1.76-1.55-2.75Zm2.89-9.59c-2.48,2.24-4.76,4.31-7.02,6.35,1.36,2.63,2.61,3.04,4.66,1.41.86-.68,1.68-1.54,2.18-2.5.81-1.53,1.48-3.2.18-5.27Zm-97.78-9.66v-2.87h-8.21c-.06.49-.16.87-.14,1.25.02.43.15.86.25,1.41,2.71-.98,5.26-1.1,8.11.21Zm97.25.65c.96-.55,2.1-1.07,3.08-1.79.99-.73.86-1.63-.2-2.27-.8-.49-1.64-.92-2.57-1.44-.65.39-1.37.82-1.84,1.1.53,1.53.98,2.81,1.53,4.41Zm-8.49,12.77c3.33-.03,5.05-1.9,6.87-3.64h-6.38c-.14,1.06-.29,2.17-.49,3.64Zm.8,107.55c-.01.1-.02.19-.04.29h22.9c0-.1,0-.19,0-.29h-22.87Zm11.9-126.2c-.5-1.09-1.29-1.46-2.39-1.02.8.34,1.6.68,2.39,1.02Z"/>
      <path d="m250.26,70.03c0,4.51-.43,8.94-2.1,13.19-3.29,8.38-10.33,13.46-19.04,13.7-9.78.27-17.11-4.17-20.96-12.68-1.4-3.1-2.14-6.35-2.4-9.72-.41-5.21-.29-10.39,1.21-15.45,2.66-8.97,9.34-14.81,17.99-15.77,11.68-1.3,20.95,4.97,24.06,16.3.38,1.38.72,2.8.87,4.22.22,2.06.25,4.15.37,6.22Zm-34.12-.14c.12.01.23.03.35.04,0,1.2-.07,2.4.01,3.6.21,3.04.71,6.03,2.1,8.8,1.99,3.96,5.2,6,9.63,5.92,4.34-.08,7.42-2.23,9.21-6.16.53-1.15.94-2.39,1.2-3.63,1.13-5.22,1.1-10.49.24-15.73-.3-1.86-.98-3.72-1.82-5.42-1.85-3.7-5.05-5.48-9.15-5.47-4,0-7.1,1.74-9.03,5.29-.64,1.18-1.23,2.47-1.47,3.77-.54,2.97-.86,5.98-1.26,8.98Z"/>
      <path d="m107.05,69.99c-.2-4.45.39-8.77,1.96-12.95,6.49-17.24,27.99-17.26,36.55-6.76,2.16,2.64,3.76,5.57,4.65,8.85,1.98,7.33,2.07,14.73-.03,22.02-4.17,14.46-17.53,18.07-28.2,14.65-6.44-2.06-10.6-6.63-13.02-12.86-1.61-4.17-2.13-8.51-1.92-12.94Zm10.71-.1c.09,1.84.11,3.68.29,5.5.28,2.89,1.01,5.67,2.6,8.14,4.16,6.5,13.74,6.35,17.54-.36.96-1.7,1.57-3.68,1.99-5.6.92-4.26.7-8.6.37-12.9-.2-2.63-.86-5.2-2.19-7.54-2.29-4.02-6.4-5.92-10.95-5.13-4.46.78-6.93,3.67-8.34,7.7-1.16,3.3-1.22,6.74-1.31,10.18Z"/>
      <path d="m317.97,79.96h10.09c.15.73.3,1.49.46,2.24.63,3.14,2.58,5.09,5.61,5.93,2.57.71,5.19.89,7.83.23,2.61-.65,4.52-2.03,5.02-4.83.46-2.59-.67-5.02-3.25-6.37-2.11-1.11-4.39-1.91-6.6-2.81-2.81-1.14-5.73-2.06-8.42-3.42-2.04-1.03-4.02-2.39-5.64-3.99-5.79-5.71-5.03-14.87,1.49-19.73,2.82-2.1,6.05-3.24,9.5-3.73,4.58-.65,9.11-.47,13.45,1.27,5.06,2.03,8.54,5.55,9.83,10.96.25,1.06.22,2.18.33,3.42h-10.36c-.15-.63-.3-1.23-.44-1.83-.71-3.16-2.73-4.92-5.83-5.64-2.17-.5-4.31-.4-6.4.23-.97.29-1.94.8-2.73,1.44-2.72,2.22-2.82,6.23.02,8.29,1.9,1.38,4.18,2.31,6.37,3.22,2.5,1.04,5.2,1.65,7.64,2.8,2.44,1.15,4.83,2.52,6.95,4.17,6.68,5.2,7.4,18.53-3.24,22.99-8.37,3.51-16.76,3.07-24.65-1.58-4.47-2.63-6.98-6.71-7.3-11.98-.01-.24-.02-.48.02-.72.02-.15.13-.29.26-.58Z"/>
      <path d="m49.84,73.45h-20.43v14.26h24.08v8.42H19.03c-.53-1.74-.72-48.39-.23-51.9,1.64-.51,30.15-.72,34.73-.21.16,2.69.07,5.43.04,8.42-2.71.37-5.32.14-7.92.18-2.72.04-5.44,0-8.15,0s-5.26,0-8.24,0c-.02,4.21-.03,8.23.02,12.57h20.56v8.26Z"/>
      <path d="m159.61,44.14c.25-.15.31-.22.38-.22,8.06.08,16.17-.32,24.18.38,10.88.95,17.36,10.48,14.9,21.12-1.59,6.89-6.52,10.41-13.12,11.7-2.87.56-5.87.49-8.82.6-2.22.09-4.44.02-7.01.02v18.42h-10.49v-52.01Zm10.71,8.59v16.33c3.53,0,6.87.04,10.22-.02,1.02-.02,2.07-.24,3.06-.51,1.58-.43,2.91-1.29,3.87-2.66,3.45-4.93.27-12.48-5.71-13.08-3.7-.37-7.48-.07-11.43-.07Z"/>
      <path d="m101.24,61.32h-10.46c-.13-.36-.33-.72-.37-1.1-.8-6.29-4.7-8.8-11.47-8.28-4.05.31-6.79,2.61-8.14,6.44-.45,1.27-.88,2.6-1.02,3.93-.63,5.73-.77,11.48.29,17.18.22,1.17.62,2.32,1.11,3.4,1.27,2.8,3.42,4.5,6.49,5.12,2.35.47,4.62.27,6.87-.37,2.84-.82,4.6-2.77,5.38-5.6.27-.99.49-1.98.74-3.04h10.46c-.37,5.33-2.18,9.82-6.25,13.11-1.77,1.43-3.86,2.58-5.98,3.42-4.26,1.67-8.74,1.8-13.22,1.05-7.04-1.19-11.89-5.28-14.65-11.75-1.02-2.39-1.75-5-2.06-7.58-.72-5.96-.91-11.97.67-17.85,2.04-7.6,6.43-13.18,14.28-15.38,5.14-1.44,10.32-1.25,15.31.66,7.53,2.87,11.02,8.75,12.03,16.65Z"/>
      <path d="m268.71,87.81h22.89v8.33h-33.03c-.58-1.78-.69-49.64-.09-52.19h10.24v43.86Z"/>
      <path d="m299.27,43.94h10.09v52.28c-3.34.14-6.72.09-10.04.02-.62-2.11-.64-50.08-.05-52.29Z"/>
      <path d="m35.77,271.24c3.54.03,6.54,2.71,6.92,6.35,1.35,13.02,3.65,25.86,7.17,38.47,1.91,6.84,4.2,13.56,7.22,20,.85,1.82,1.67,3.64,1.21,5.73-.71,3.19-2.95,5.38-6.25,5.76-2.85.33-5.49-.96-7.13-3.87-1.13-2.01-1.97-4.18-2.86-6.32-4.75-11.38-7.93-23.23-10.18-35.32-1.36-7.27-2.3-14.62-3.35-21.95-.16-1.15-.05-2.41.23-3.54.85-3.4,3.5-5.34,7-5.31Z"/>
      <rect x="594.88" y="241.02" width="23.74" height="1.03"/>
    </g>
  </g>
</svg>