<?xml version="1.0" encoding="utf-8"?>
<!-- Generator: Adobe Illustrator 27.5.0, SVG Export Plug-In . SVG Version: 6.00 Build 0)  -->
<svg version="1.1" id="Layer_1" xmlns="http://www.w3.org/2000/svg" xmlns:xlink="http://www.w3.org/1999/xlink" x="0px" y="0px"
	 viewBox="0 0 576 512" style="enable-background:new 0 0 576 512;" xml:space="preserve">
<style type="text/css">
	.st0{fill:#FFFFFF;}
</style>
<path class="st0" d="M49.7,32c-10.5,0-19.8,6.9-22.9,16.9L0.9,133c-0.6,2-0.9,4.1-0.9,6.1C0,150.7,9.3,160,20.9,160h94l25.6-128
	H49.7z M272,160V32h-98.9l-25.6,128H272z M304,160h124.5L402.9,32H304V160z M461.1,160h94c11.5,0,20.9-9.3,20.9-20.9
	c0-2.1-0.3-4.1-0.9-6.1l-25.9-84.1c-3.1-10-12.4-16.9-22.9-16.9h-90.8L461.1,160z M32,192l4,32h-4c-17.7,0-32,14.3-32,32
	s14.3,32,32,32h12l20,160c0,17.7,14.3,32,32,32s32-14.3,32-32h320c0,17.7,14.3,32,32,32s32-14.3,32-32l20-160h12
	c17.7,0,32-14.3,32-32s-14.3-32-32-32h-4l4-32H32z"/>
</svg>
